<?xml version="1.0" standalone="no"?>
 <!DOCTYPE svg PUBLIC "-//W3C//DTD SVG 1.1//EN" 
 "http://www.w3.org/Graphics/SVG/1.1/DTD/svg11.dtd"> 
<svg
  xmlns:svg="http://www.w3.org/2000/svg"
  xmlns="http://www.w3.org/2000/svg"
  xmlns:xlink="http://www.w3.org/1999/xlink"
  version="1.1"
  width="297.0022mm" height="210.0072mm" viewBox="0.0000 0.0000 297.0022 210.0072">
<title>SVG Image created as CustomTemper-Edge_Cuts.svg date 2024/07/28 12:11:50 </title>
  <desc>Image generated by PCBNEW </desc>
<g style="fill:#000000; fill-opacity:1.0000;stroke:#000000; stroke-opacity:1.0000;
stroke-linecap:round; stroke-linejoin:round;"
 transform="translate(0 0) scale(1 1)">
</g>
<g style="fill:none; 
stroke:#000000; stroke-width:0.1500; stroke-opacity:1; 
stroke-linecap:round; stroke-linejoin:round;">
<path d="M177.0022 166.0072
L285.0022 166.0072
L285.0022 198.0072
L177.0022 198.0072
L177.0022 166.0072
" />
</g>
<g style="fill:none; 
stroke:#000000; stroke-width:0.1500; stroke-opacity:1; 
stroke-linecap:round; stroke-linejoin:round;">
<path d="M10.0000 10.0000
L287.0022 10.0000
L287.0022 200.0072
L10.0000 200.0072
L10.0000 10.0000
" />
</g>
<g style="fill:none; 
stroke:#000000; stroke-width:0.1500; stroke-opacity:1; 
stroke-linecap:round; stroke-linejoin:round;">
<path d="M12.0000 12.0000
L285.0022 12.0000
L285.0022 198.0072
L12.0000 198.0072
L12.0000 12.0000
" />
</g>
<g style="fill:none; 
stroke:#000000; stroke-width:0.1500; stroke-opacity:1; 
stroke-linecap:round; stroke-linejoin:round;">
<path d="M60.0000 12.0000
L60.0000 10.0000
" />
</g>
<g style="fill:none; 
stroke:#000000; stroke-width:0.1500; stroke-opacity:1; 
stroke-linecap:round; stroke-linejoin:round;">
<path d="M110.0000 12.0000
L110.0000 10.0000
" />
</g>
<g style="fill:none; 
stroke:#000000; stroke-width:0.1500; stroke-opacity:1; 
stroke-linecap:round; stroke-linejoin:round;">
<path d="M160.0000 12.0000
L160.0000 10.0000
" />
</g>
<g style="fill:none; 
stroke:#000000; stroke-width:0.1500; stroke-opacity:1; 
stroke-linecap:round; stroke-linejoin:round;">
<path d="M210.0000 12.0000
L210.0000 10.0000
" />
</g>
<g style="fill:none; 
stroke:#000000; stroke-width:0.1500; stroke-opacity:1; 
stroke-linecap:round; stroke-linejoin:round;">
<path d="M260.0000 12.0000
L260.0000 10.0000
" />
</g>
<g style="fill:none; 
stroke:#000000; stroke-width:0.1500; stroke-opacity:1; 
stroke-linecap:round; stroke-linejoin:round;">
<text x="35.0000" y="11.6500"
textLength="1.4281" font-size="1.7333" lengthAdjust="spacingAndGlyphs"
text-anchor="start" opacity="0" stroke-opacity="0">1</text>
<g class="stroked-text"><desc>1</desc>
<path d="M36.0892 11.5936
L35.3463 11.5936
" />
<path d="M35.7177 11.5936
L35.7177 10.2936
" />
<path d="M35.7177 10.2936
L35.5939 10.4793
" />
<path d="M35.5939 10.4793
L35.4701 10.6031
" />
<path d="M35.4701 10.6031
L35.3463 10.6650
" />
</g></g>
<g style="fill:none; 
stroke:#000000; stroke-width:0.1500; stroke-opacity:1; 
stroke-linecap:round; stroke-linejoin:round;">
<text x="85.0000" y="11.6500"
textLength="1.4281" font-size="1.7333" lengthAdjust="spacingAndGlyphs"
text-anchor="start" opacity="0" stroke-opacity="0">2</text>
<g class="stroked-text"><desc>2</desc>
<path d="M85.3463 10.4174
L85.4082 10.3555
" />
<path d="M85.4082 10.3555
L85.5320 10.2936
" />
<path d="M85.5320 10.2936
L85.8415 10.2936
" />
<path d="M85.8415 10.2936
L85.9654 10.3555
" />
<path d="M85.9654 10.3555
L86.0273 10.4174
" />
<path d="M86.0273 10.4174
L86.0892 10.5412
" />
<path d="M86.0892 10.5412
L86.0892 10.6650
" />
<path d="M86.0892 10.6650
L86.0273 10.8507
" />
<path d="M86.0273 10.8507
L85.2844 11.5936
" />
<path d="M85.2844 11.5936
L86.0892 11.5936
" />
</g></g>
<g style="fill:none; 
stroke:#000000; stroke-width:0.1500; stroke-opacity:1; 
stroke-linecap:round; stroke-linejoin:round;">
<text x="135.0000" y="11.6500"
textLength="1.4281" font-size="1.7333" lengthAdjust="spacingAndGlyphs"
text-anchor="start" opacity="0" stroke-opacity="0">3</text>
<g class="stroked-text"><desc>3</desc>
<path d="M135.2844 10.2936
L136.0892 10.2936
" />
<path d="M136.0892 10.2936
L135.6558 10.7888
" />
<path d="M135.6558 10.7888
L135.8415 10.7888
" />
<path d="M135.8415 10.7888
L135.9654 10.8507
" />
<path d="M135.9654 10.8507
L136.0273 10.9127
" />
<path d="M136.0273 10.9127
L136.0892 11.0365
" />
<path d="M136.0892 11.0365
L136.0892 11.3460
" />
<path d="M136.0892 11.3460
L136.0273 11.4698
" />
<path d="M136.0273 11.4698
L135.9654 11.5317
" />
<path d="M135.9654 11.5317
L135.8415 11.5936
" />
<path d="M135.8415 11.5936
L135.4701 11.5936
" />
<path d="M135.4701 11.5936
L135.3463 11.5317
" />
<path d="M135.3463 11.5317
L135.2844 11.4698
" />
</g></g>
<g style="fill:none; 
stroke:#000000; stroke-width:0.1500; stroke-opacity:1; 
stroke-linecap:round; stroke-linejoin:round;">
<text x="185.0000" y="11.6500"
textLength="1.4281" font-size="1.7333" lengthAdjust="spacingAndGlyphs"
text-anchor="start" opacity="0" stroke-opacity="0">4</text>
<g class="stroked-text"><desc>4</desc>
<path d="M185.9654 10.7269
L185.9654 11.5936
" />
<path d="M185.6558 10.2317
L185.3463 11.1603
" />
<path d="M185.3463 11.1603
L186.1511 11.1603
" />
</g></g>
<g style="fill:none; 
stroke:#000000; stroke-width:0.1500; stroke-opacity:1; 
stroke-linecap:round; stroke-linejoin:round;">
<text x="235.0000" y="11.6500"
textLength="1.4281" font-size="1.7333" lengthAdjust="spacingAndGlyphs"
text-anchor="start" opacity="0" stroke-opacity="0">5</text>
<g class="stroked-text"><desc>5</desc>
<path d="M236.0273 10.2936
L235.4082 10.2936
" />
<path d="M235.4082 10.2936
L235.3463 10.9127
" />
<path d="M235.3463 10.9127
L235.4082 10.8507
" />
<path d="M235.4082 10.8507
L235.5320 10.7888
" />
<path d="M235.5320 10.7888
L235.8415 10.7888
" />
<path d="M235.8415 10.7888
L235.9654 10.8507
" />
<path d="M235.9654 10.8507
L236.0273 10.9127
" />
<path d="M236.0273 10.9127
L236.0892 11.0365
" />
<path d="M236.0892 11.0365
L236.0892 11.3460
" />
<path d="M236.0892 11.3460
L236.0273 11.4698
" />
<path d="M236.0273 11.4698
L235.9654 11.5317
" />
<path d="M235.9654 11.5317
L235.8415 11.5936
" />
<path d="M235.8415 11.5936
L235.5320 11.5936
" />
<path d="M235.5320 11.5936
L235.4082 11.5317
" />
<path d="M235.4082 11.5317
L235.3463 11.4698
" />
</g></g>
<g style="fill:none; 
stroke:#000000; stroke-width:0.1500; stroke-opacity:1; 
stroke-linecap:round; stroke-linejoin:round;">
<text x="285.0000" y="11.6500"
textLength="1.4281" font-size="1.7333" lengthAdjust="spacingAndGlyphs"
text-anchor="start" opacity="0" stroke-opacity="0">6</text>
<g class="stroked-text"><desc>6</desc>
<path d="M285.9654 10.2936
L285.7177 10.2936
" />
<path d="M285.7177 10.2936
L285.5939 10.3555
" />
<path d="M285.5939 10.3555
L285.5320 10.4174
" />
<path d="M285.5320 10.4174
L285.4082 10.6031
" />
<path d="M285.4082 10.6031
L285.3463 10.8507
" />
<path d="M285.3463 10.8507
L285.3463 11.3460
" />
<path d="M285.3463 11.3460
L285.4082 11.4698
" />
<path d="M285.4082 11.4698
L285.4701 11.5317
" />
<path d="M285.4701 11.5317
L285.5939 11.5936
" />
<path d="M285.5939 11.5936
L285.8415 11.5936
" />
<path d="M285.8415 11.5936
L285.9654 11.5317
" />
<path d="M285.9654 11.5317
L286.0273 11.4698
" />
<path d="M286.0273 11.4698
L286.0892 11.3460
" />
<path d="M286.0892 11.3460
L286.0892 11.0365
" />
<path d="M286.0892 11.0365
L286.0273 10.9127
" />
<path d="M286.0273 10.9127
L285.9654 10.8507
" />
<path d="M285.9654 10.8507
L285.8415 10.7888
" />
<path d="M285.8415 10.7888
L285.5939 10.7888
" />
<path d="M285.5939 10.7888
L285.4701 10.8507
" />
<path d="M285.4701 10.8507
L285.4082 10.9127
" />
<path d="M285.4082 10.9127
L285.3463 11.0365
" />
</g></g>
<g style="fill:none; 
stroke:#000000; stroke-width:0.1500; stroke-opacity:1; 
stroke-linecap:round; stroke-linejoin:round;">
<path d="M60.0000 198.0072
L60.0000 200.0072
" />
</g>
<g style="fill:none; 
stroke:#000000; stroke-width:0.1500; stroke-opacity:1; 
stroke-linecap:round; stroke-linejoin:round;">
<path d="M110.0000 198.0072
L110.0000 200.0072
" />
</g>
<g style="fill:none; 
stroke:#000000; stroke-width:0.1500; stroke-opacity:1; 
stroke-linecap:round; stroke-linejoin:round;">
<path d="M160.0000 198.0072
L160.0000 200.0072
" />
</g>
<g style="fill:none; 
stroke:#000000; stroke-width:0.1500; stroke-opacity:1; 
stroke-linecap:round; stroke-linejoin:round;">
<path d="M210.0000 198.0072
L210.0000 200.0072
" />
</g>
<g style="fill:none; 
stroke:#000000; stroke-width:0.1500; stroke-opacity:1; 
stroke-linecap:round; stroke-linejoin:round;">
<path d="M260.0000 198.0072
L260.0000 200.0072
" />
</g>
<g style="fill:none; 
stroke:#000000; stroke-width:0.1500; stroke-opacity:1; 
stroke-linecap:round; stroke-linejoin:round;">
<text x="35.0000" y="199.6572"
textLength="1.4281" font-size="1.7333" lengthAdjust="spacingAndGlyphs"
text-anchor="start" opacity="0" stroke-opacity="0">1</text>
<g class="stroked-text"><desc>1</desc>
<path d="M36.0892 199.6008
L35.3463 199.6008
" />
<path d="M35.7177 199.6008
L35.7177 198.3008
" />
<path d="M35.7177 198.3008
L35.5939 198.4865
" />
<path d="M35.5939 198.4865
L35.4701 198.6103
" />
<path d="M35.4701 198.6103
L35.3463 198.6722
" />
</g></g>
<g style="fill:none; 
stroke:#000000; stroke-width:0.1500; stroke-opacity:1; 
stroke-linecap:round; stroke-linejoin:round;">
<text x="85.0000" y="199.6572"
textLength="1.4281" font-size="1.7333" lengthAdjust="spacingAndGlyphs"
text-anchor="start" opacity="0" stroke-opacity="0">2</text>
<g class="stroked-text"><desc>2</desc>
<path d="M85.3463 198.4246
L85.4082 198.3627
" />
<path d="M85.4082 198.3627
L85.5320 198.3008
" />
<path d="M85.5320 198.3008
L85.8415 198.3008
" />
<path d="M85.8415 198.3008
L85.9654 198.3627
" />
<path d="M85.9654 198.3627
L86.0273 198.4246
" />
<path d="M86.0273 198.4246
L86.0892 198.5484
" />
<path d="M86.0892 198.5484
L86.0892 198.6722
" />
<path d="M86.0892 198.6722
L86.0273 198.8579
" />
<path d="M86.0273 198.8579
L85.2844 199.6008
" />
<path d="M85.2844 199.6008
L86.0892 199.6008
" />
</g></g>
<g style="fill:none; 
stroke:#000000; stroke-width:0.1500; stroke-opacity:1; 
stroke-linecap:round; stroke-linejoin:round;">
<text x="135.0000" y="199.6572"
textLength="1.4281" font-size="1.7333" lengthAdjust="spacingAndGlyphs"
text-anchor="start" opacity="0" stroke-opacity="0">3</text>
<g class="stroked-text"><desc>3</desc>
<path d="M135.2844 198.3008
L136.0892 198.3008
" />
<path d="M136.0892 198.3008
L135.6558 198.7960
" />
<path d="M135.6558 198.7960
L135.8415 198.7960
" />
<path d="M135.8415 198.7960
L135.9654 198.8579
" />
<path d="M135.9654 198.8579
L136.0273 198.9199
" />
<path d="M136.0273 198.9199
L136.0892 199.0437
" />
<path d="M136.0892 199.0437
L136.0892 199.3532
" />
<path d="M136.0892 199.3532
L136.0273 199.4770
" />
<path d="M136.0273 199.4770
L135.9654 199.5389
" />
<path d="M135.9654 199.5389
L135.8415 199.6008
" />
<path d="M135.8415 199.6008
L135.4701 199.6008
" />
<path d="M135.4701 199.6008
L135.3463 199.5389
" />
<path d="M135.3463 199.5389
L135.2844 199.4770
" />
</g></g>
<g style="fill:none; 
stroke:#000000; stroke-width:0.1500; stroke-opacity:1; 
stroke-linecap:round; stroke-linejoin:round;">
<text x="185.0000" y="199.6572"
textLength="1.4281" font-size="1.7333" lengthAdjust="spacingAndGlyphs"
text-anchor="start" opacity="0" stroke-opacity="0">4</text>
<g class="stroked-text"><desc>4</desc>
<path d="M185.9654 198.7341
L185.9654 199.6008
" />
<path d="M185.6558 198.2389
L185.3463 199.1675
" />
<path d="M185.3463 199.1675
L186.1511 199.1675
" />
</g></g>
<g style="fill:none; 
stroke:#000000; stroke-width:0.1500; stroke-opacity:1; 
stroke-linecap:round; stroke-linejoin:round;">
<text x="235.0000" y="199.6572"
textLength="1.4281" font-size="1.7333" lengthAdjust="spacingAndGlyphs"
text-anchor="start" opacity="0" stroke-opacity="0">5</text>
<g class="stroked-text"><desc>5</desc>
<path d="M236.0273 198.3008
L235.4082 198.3008
" />
<path d="M235.4082 198.3008
L235.3463 198.9199
" />
<path d="M235.3463 198.9199
L235.4082 198.8579
" />
<path d="M235.4082 198.8579
L235.5320 198.7960
" />
<path d="M235.5320 198.7960
L235.8415 198.7960
" />
<path d="M235.8415 198.7960
L235.9654 198.8579
" />
<path d="M235.9654 198.8579
L236.0273 198.9199
" />
<path d="M236.0273 198.9199
L236.0892 199.0437
" />
<path d="M236.0892 199.0437
L236.0892 199.3532
" />
<path d="M236.0892 199.3532
L236.0273 199.4770
" />
<path d="M236.0273 199.4770
L235.9654 199.5389
" />
<path d="M235.9654 199.5389
L235.8415 199.6008
" />
<path d="M235.8415 199.6008
L235.5320 199.6008
" />
<path d="M235.5320 199.6008
L235.4082 199.5389
" />
<path d="M235.4082 199.5389
L235.3463 199.4770
" />
</g></g>
<g style="fill:none; 
stroke:#000000; stroke-width:0.1500; stroke-opacity:1; 
stroke-linecap:round; stroke-linejoin:round;">
<text x="285.0000" y="199.6572"
textLength="1.4281" font-size="1.7333" lengthAdjust="spacingAndGlyphs"
text-anchor="start" opacity="0" stroke-opacity="0">6</text>
<g class="stroked-text"><desc>6</desc>
<path d="M285.9654 198.3008
L285.7177 198.3008
" />
<path d="M285.7177 198.3008
L285.5939 198.3627
" />
<path d="M285.5939 198.3627
L285.5320 198.4246
" />
<path d="M285.5320 198.4246
L285.4082 198.6103
" />
<path d="M285.4082 198.6103
L285.3463 198.8579
" />
<path d="M285.3463 198.8579
L285.3463 199.3532
" />
<path d="M285.3463 199.3532
L285.4082 199.4770
" />
<path d="M285.4082 199.4770
L285.4701 199.5389
" />
<path d="M285.4701 199.5389
L285.5939 199.6008
" />
<path d="M285.5939 199.6008
L285.8415 199.6008
" />
<path d="M285.8415 199.6008
L285.9654 199.5389
" />
<path d="M285.9654 199.5389
L286.0273 199.4770
" />
<path d="M286.0273 199.4770
L286.0892 199.3532
" />
<path d="M286.0892 199.3532
L286.0892 199.0437
" />
<path d="M286.0892 199.0437
L286.0273 198.9199
" />
<path d="M286.0273 198.9199
L285.9654 198.8579
" />
<path d="M285.9654 198.8579
L285.8415 198.7960
" />
<path d="M285.8415 198.7960
L285.5939 198.7960
" />
<path d="M285.5939 198.7960
L285.4701 198.8579
" />
<path d="M285.4701 198.8579
L285.4082 198.9199
" />
<path d="M285.4082 198.9199
L285.3463 199.0437
" />
</g></g>
<g style="fill:none; 
stroke:#000000; stroke-width:0.1500; stroke-opacity:1; 
stroke-linecap:round; stroke-linejoin:round;">
<path d="M10.0000 60.0000
L12.0000 60.0000
" />
</g>
<g style="fill:none; 
stroke:#000000; stroke-width:0.1500; stroke-opacity:1; 
stroke-linecap:round; stroke-linejoin:round;">
<path d="M10.0000 110.0000
L12.0000 110.0000
" />
</g>
<g style="fill:none; 
stroke:#000000; stroke-width:0.1500; stroke-opacity:1; 
stroke-linecap:round; stroke-linejoin:round;">
<path d="M10.0000 160.0000
L12.0000 160.0000
" />
</g>
<g style="fill:none; 
stroke:#000000; stroke-width:0.1500; stroke-opacity:1; 
stroke-linecap:round; stroke-linejoin:round;">
<text x="11.0000" y="35.6500"
textLength="1.3043" font-size="1.7333" lengthAdjust="spacingAndGlyphs"
text-anchor="middle" opacity="0" stroke-opacity="0">A</text>
<g class="stroked-text"><desc>A</desc>
<path d="M10.6905 35.2222
L11.3095 35.2222
" />
<path d="M10.5667 35.5936
L11.0000 34.2936
" />
<path d="M11.0000 34.2936
L11.4333 35.5936
" />
</g></g>
<g style="fill:none; 
stroke:#000000; stroke-width:0.1500; stroke-opacity:1; 
stroke-linecap:round; stroke-linejoin:round;">
<text x="11.0000" y="85.6500"
textLength="1.4900" font-size="1.7333" lengthAdjust="spacingAndGlyphs"
text-anchor="middle" opacity="0" stroke-opacity="0">B</text>
<g class="stroked-text"><desc>B</desc>
<path d="M11.0929 84.9127
L11.2786 84.9746
" />
<path d="M11.2786 84.9746
L11.3405 85.0365
" />
<path d="M11.3405 85.0365
L11.4024 85.1603
" />
<path d="M11.4024 85.1603
L11.4024 85.3460
" />
<path d="M11.4024 85.3460
L11.3405 85.4698
" />
<path d="M11.3405 85.4698
L11.2786 85.5317
" />
<path d="M11.2786 85.5317
L11.1548 85.5936
" />
<path d="M11.1548 85.5936
L10.6595 85.5936
" />
<path d="M10.6595 85.5936
L10.6595 84.2936
" />
<path d="M10.6595 84.2936
L11.0929 84.2936
" />
<path d="M11.0929 84.2936
L11.2167 84.3555
" />
<path d="M11.2167 84.3555
L11.2786 84.4174
" />
<path d="M11.2786 84.4174
L11.3405 84.5412
" />
<path d="M11.3405 84.5412
L11.3405 84.6650
" />
<path d="M11.3405 84.6650
L11.2786 84.7888
" />
<path d="M11.2786 84.7888
L11.2167 84.8507
" />
<path d="M11.2167 84.8507
L11.0929 84.9127
" />
<path d="M11.0929 84.9127
L10.6595 84.9127
" />
</g></g>
<g style="fill:none; 
stroke:#000000; stroke-width:0.1500; stroke-opacity:1; 
stroke-linecap:round; stroke-linejoin:round;">
<text x="11.0000" y="135.6500"
textLength="1.4900" font-size="1.7333" lengthAdjust="spacingAndGlyphs"
text-anchor="middle" opacity="0" stroke-opacity="0">C</text>
<g class="stroked-text"><desc>C</desc>
<path d="M11.4024 135.4698
L11.3405 135.5317
" />
<path d="M11.3405 135.5317
L11.1548 135.5936
" />
<path d="M11.1548 135.5936
L11.0310 135.5936
" />
<path d="M11.0310 135.5936
L10.8452 135.5317
" />
<path d="M10.8452 135.5317
L10.7214 135.4079
" />
<path d="M10.7214 135.4079
L10.6595 135.2841
" />
<path d="M10.6595 135.2841
L10.5976 135.0365
" />
<path d="M10.5976 135.0365
L10.5976 134.8507
" />
<path d="M10.5976 134.8507
L10.6595 134.6031
" />
<path d="M10.6595 134.6031
L10.7214 134.4793
" />
<path d="M10.7214 134.4793
L10.8452 134.3555
" />
<path d="M10.8452 134.3555
L11.0310 134.2936
" />
<path d="M11.0310 134.2936
L11.1548 134.2936
" />
<path d="M11.1548 134.2936
L11.3405 134.3555
" />
<path d="M11.3405 134.3555
L11.4024 134.4174
" />
</g></g>
<g style="fill:none; 
stroke:#000000; stroke-width:0.1500; stroke-opacity:1; 
stroke-linecap:round; stroke-linejoin:round;">
<text x="11.0000" y="185.6500"
textLength="1.4900" font-size="1.7333" lengthAdjust="spacingAndGlyphs"
text-anchor="middle" opacity="0" stroke-opacity="0">D</text>
<g class="stroked-text"><desc>D</desc>
<path d="M10.6595 185.5936
L10.6595 184.2936
" />
<path d="M10.6595 184.2936
L10.9690 184.2936
" />
<path d="M10.9690 184.2936
L11.1548 184.3555
" />
<path d="M11.1548 184.3555
L11.2786 184.4793
" />
<path d="M11.2786 184.4793
L11.3405 184.6031
" />
<path d="M11.3405 184.6031
L11.4024 184.8507
" />
<path d="M11.4024 184.8507
L11.4024 185.0365
" />
<path d="M11.4024 185.0365
L11.3405 185.2841
" />
<path d="M11.3405 185.2841
L11.2786 185.4079
" />
<path d="M11.2786 185.4079
L11.1548 185.5317
" />
<path d="M11.1548 185.5317
L10.9690 185.5936
" />
<path d="M10.9690 185.5936
L10.6595 185.5936
" />
</g></g>
<g style="fill:none; 
stroke:#000000; stroke-width:0.1500; stroke-opacity:1; 
stroke-linecap:round; stroke-linejoin:round;">
<path d="M287.0022 60.0000
L285.0022 60.0000
" />
</g>
<g style="fill:none; 
stroke:#000000; stroke-width:0.1500; stroke-opacity:1; 
stroke-linecap:round; stroke-linejoin:round;">
<path d="M287.0022 110.0000
L285.0022 110.0000
" />
</g>
<g style="fill:none; 
stroke:#000000; stroke-width:0.1500; stroke-opacity:1; 
stroke-linecap:round; stroke-linejoin:round;">
<path d="M287.0022 160.0000
L285.0022 160.0000
" />
</g>
<g style="fill:none; 
stroke:#000000; stroke-width:0.1500; stroke-opacity:1; 
stroke-linecap:round; stroke-linejoin:round;">
<text x="286.0022" y="35.6500"
textLength="1.3043" font-size="1.7333" lengthAdjust="spacingAndGlyphs"
text-anchor="middle" opacity="0" stroke-opacity="0">A</text>
<g class="stroked-text"><desc>A</desc>
<path d="M285.6927 35.2222
L286.3117 35.2222
" />
<path d="M285.5689 35.5936
L286.0022 34.2936
" />
<path d="M286.0022 34.2936
L286.4355 35.5936
" />
</g></g>
<g style="fill:none; 
stroke:#000000; stroke-width:0.1500; stroke-opacity:1; 
stroke-linecap:round; stroke-linejoin:round;">
<text x="286.0022" y="85.6500"
textLength="1.4900" font-size="1.7333" lengthAdjust="spacingAndGlyphs"
text-anchor="middle" opacity="0" stroke-opacity="0">B</text>
<g class="stroked-text"><desc>B</desc>
<path d="M286.0951 84.9127
L286.2808 84.9746
" />
<path d="M286.2808 84.9746
L286.3427 85.0365
" />
<path d="M286.3427 85.0365
L286.4046 85.1603
" />
<path d="M286.4046 85.1603
L286.4046 85.3460
" />
<path d="M286.4046 85.3460
L286.3427 85.4698
" />
<path d="M286.3427 85.4698
L286.2808 85.5317
" />
<path d="M286.2808 85.5317
L286.1570 85.5936
" />
<path d="M286.1570 85.5936
L285.6617 85.5936
" />
<path d="M285.6617 85.5936
L285.6617 84.2936
" />
<path d="M285.6617 84.2936
L286.0951 84.2936
" />
<path d="M286.0951 84.2936
L286.2189 84.3555
" />
<path d="M286.2189 84.3555
L286.2808 84.4174
" />
<path d="M286.2808 84.4174
L286.3427 84.5412
" />
<path d="M286.3427 84.5412
L286.3427 84.6650
" />
<path d="M286.3427 84.6650
L286.2808 84.7888
" />
<path d="M286.2808 84.7888
L286.2189 84.8507
" />
<path d="M286.2189 84.8507
L286.0951 84.9127
" />
<path d="M286.0951 84.9127
L285.6617 84.9127
" />
</g></g>
<g style="fill:none; 
stroke:#000000; stroke-width:0.1500; stroke-opacity:1; 
stroke-linecap:round; stroke-linejoin:round;">
<text x="286.0022" y="135.6500"
textLength="1.4900" font-size="1.7333" lengthAdjust="spacingAndGlyphs"
text-anchor="middle" opacity="0" stroke-opacity="0">C</text>
<g class="stroked-text"><desc>C</desc>
<path d="M286.4046 135.4698
L286.3427 135.5317
" />
<path d="M286.3427 135.5317
L286.1570 135.5936
" />
<path d="M286.1570 135.5936
L286.0332 135.5936
" />
<path d="M286.0332 135.5936
L285.8474 135.5317
" />
<path d="M285.8474 135.5317
L285.7236 135.4079
" />
<path d="M285.7236 135.4079
L285.6617 135.2841
" />
<path d="M285.6617 135.2841
L285.5998 135.0365
" />
<path d="M285.5998 135.0365
L285.5998 134.8507
" />
<path d="M285.5998 134.8507
L285.6617 134.6031
" />
<path d="M285.6617 134.6031
L285.7236 134.4793
" />
<path d="M285.7236 134.4793
L285.8474 134.3555
" />
<path d="M285.8474 134.3555
L286.0332 134.2936
" />
<path d="M286.0332 134.2936
L286.1570 134.2936
" />
<path d="M286.1570 134.2936
L286.3427 134.3555
" />
<path d="M286.3427 134.3555
L286.4046 134.4174
" />
</g></g>
<g style="fill:none; 
stroke:#000000; stroke-width:0.1500; stroke-opacity:1; 
stroke-linecap:round; stroke-linejoin:round;">
<text x="286.0022" y="185.6500"
textLength="1.4900" font-size="1.7333" lengthAdjust="spacingAndGlyphs"
text-anchor="middle" opacity="0" stroke-opacity="0">D</text>
<g class="stroked-text"><desc>D</desc>
<path d="M285.6617 185.5936
L285.6617 184.2936
" />
<path d="M285.6617 184.2936
L285.9712 184.2936
" />
<path d="M285.9712 184.2936
L286.1570 184.3555
" />
<path d="M286.1570 184.3555
L286.2808 184.4793
" />
<path d="M286.2808 184.4793
L286.3427 184.6031
" />
<path d="M286.3427 184.6031
L286.4046 184.8507
" />
<path d="M286.4046 184.8507
L286.4046 185.0365
" />
<path d="M286.4046 185.0365
L286.3427 185.2841
" />
<path d="M286.3427 185.2841
L286.2808 185.4079
" />
<path d="M286.2808 185.4079
L286.1570 185.5317
" />
<path d="M286.1570 185.5317
L285.9712 185.5936
" />
<path d="M285.9712 185.5936
L285.6617 185.5936
" />
</g></g>
<g style="fill:none; 
stroke:#000000; stroke-width:0.1500; stroke-opacity:1; 
stroke-linecap:round; stroke-linejoin:round;">
<text x="200.0022" y="193.8572"
textLength="22.1500" font-size="2.0000" lengthAdjust="spacingAndGlyphs"
text-anchor="start" opacity="0" stroke-opacity="0">Date: 2023-07-14</text>
<g class="stroked-text"><desc>Date: 2023-07-14</desc>
<path d="M200.4580 193.7933
L200.4580 192.2933
" />
<path d="M200.4580 192.2933
L200.8152 192.2933
" />
<path d="M200.8152 192.2933
L201.0295 192.3648
" />
<path d="M201.0295 192.3648
L201.1723 192.5076
" />
<path d="M201.1723 192.5076
L201.2437 192.6505
" />
<path d="M201.2437 192.6505
L201.3152 192.9362
" />
<path d="M201.3152 192.9362
L201.3152 193.1505
" />
<path d="M201.3152 193.1505
L201.2437 193.4362
" />
<path d="M201.2437 193.4362
L201.1723 193.5790
" />
<path d="M201.1723 193.5790
L201.0295 193.7219
" />
<path d="M201.0295 193.7219
L200.8152 193.7933
" />
<path d="M200.8152 193.7933
L200.4580 193.7933
" />
<path d="M202.6009 193.7933
L202.6009 193.0076
" />
<path d="M202.6009 193.0076
L202.5295 192.8648
" />
<path d="M202.5295 192.8648
L202.3866 192.7933
" />
<path d="M202.3866 192.7933
L202.1009 192.7933
" />
<path d="M202.1009 192.7933
L201.9580 192.8648
" />
<path d="M202.6009 193.7219
L202.4580 193.7933
" />
<path d="M202.4580 193.7933
L202.1009 193.7933
" />
<path d="M202.1009 193.7933
L201.9580 193.7219
" />
<path d="M201.9580 193.7219
L201.8866 193.5790
" />
<path d="M201.8866 193.5790
L201.8866 193.4362
" />
<path d="M201.8866 193.4362
L201.9580 193.2933
" />
<path d="M201.9580 193.2933
L202.1009 193.2219
" />
<path d="M202.1009 193.2219
L202.4580 193.2219
" />
<path d="M202.4580 193.2219
L202.6009 193.1505
" />
<path d="M203.1009 192.7933
L203.6723 192.7933
" />
<path d="M203.3152 192.2933
L203.3152 193.5790
" />
<path d="M203.3152 193.5790
L203.3866 193.7219
" />
<path d="M203.3866 193.7219
L203.5295 193.7933
" />
<path d="M203.5295 193.7933
L203.6723 193.7933
" />
<path d="M204.7437 193.7219
L204.6009 193.7933
" />
<path d="M204.6009 193.7933
L204.3152 193.7933
" />
<path d="M204.3152 193.7933
L204.1723 193.7219
" />
<path d="M204.1723 193.7219
L204.1009 193.5790
" />
<path d="M204.1009 193.5790
L204.1009 193.0076
" />
<path d="M204.1009 193.0076
L204.1723 192.8648
" />
<path d="M204.1723 192.8648
L204.3152 192.7933
" />
<path d="M204.3152 192.7933
L204.6009 192.7933
" />
<path d="M204.6009 192.7933
L204.7437 192.8648
" />
<path d="M204.7437 192.8648
L204.8152 193.0076
" />
<path d="M204.8152 193.0076
L204.8152 193.1505
" />
<path d="M204.8152 193.1505
L204.1009 193.2933
" />
<path d="M205.4580 193.6505
L205.5295 193.7219
" />
<path d="M205.5295 193.7219
L205.4580 193.7933
" />
<path d="M205.4580 193.7933
L205.3866 193.7219
" />
<path d="M205.3866 193.7219
L205.4580 193.6505
" />
<path d="M205.4580 193.6505
L205.4580 193.7933
" />
<path d="M205.4580 192.8648
L205.5295 192.9362
" />
<path d="M205.5295 192.9362
L205.4580 193.0076
" />
<path d="M205.4580 193.0076
L205.3866 192.9362
" />
<path d="M205.3866 192.9362
L205.4580 192.8648
" />
<path d="M205.4580 192.8648
L205.4580 193.0076
" />
<path d="M207.2437 192.4362
L207.3152 192.3648
" />
<path d="M207.3152 192.3648
L207.4580 192.2933
" />
<path d="M207.4580 192.2933
L207.8152 192.2933
" />
<path d="M207.8152 192.2933
L207.9580 192.3648
" />
<path d="M207.9580 192.3648
L208.0295 192.4362
" />
<path d="M208.0295 192.4362
L208.1009 192.5790
" />
<path d="M208.1009 192.5790
L208.1009 192.7219
" />
<path d="M208.1009 192.7219
L208.0295 192.9362
" />
<path d="M208.0295 192.9362
L207.1723 193.7933
" />
<path d="M207.1723 193.7933
L208.1009 193.7933
" />
<path d="M209.0295 192.2933
L209.1723 192.2933
" />
<path d="M209.1723 192.2933
L209.3152 192.3648
" />
<path d="M209.3152 192.3648
L209.3866 192.4362
" />
<path d="M209.3866 192.4362
L209.4580 192.5790
" />
<path d="M209.4580 192.5790
L209.5295 192.8648
" />
<path d="M209.5295 192.8648
L209.5295 193.2219
" />
<path d="M209.5295 193.2219
L209.4580 193.5076
" />
<path d="M209.4580 193.5076
L209.3866 193.6505
" />
<path d="M209.3866 193.6505
L209.3152 193.7219
" />
<path d="M209.3152 193.7219
L209.1723 193.7933
" />
<path d="M209.1723 193.7933
L209.0295 193.7933
" />
<path d="M209.0295 193.7933
L208.8866 193.7219
" />
<path d="M208.8866 193.7219
L208.8152 193.6505
" />
<path d="M208.8152 193.6505
L208.7437 193.5076
" />
<path d="M208.7437 193.5076
L208.6723 193.2219
" />
<path d="M208.6723 193.2219
L208.6723 192.8648
" />
<path d="M208.6723 192.8648
L208.7437 192.5790
" />
<path d="M208.7437 192.5790
L208.8152 192.4362
" />
<path d="M208.8152 192.4362
L208.8866 192.3648
" />
<path d="M208.8866 192.3648
L209.0295 192.2933
" />
<path d="M210.1009 192.4362
L210.1723 192.3648
" />
<path d="M210.1723 192.3648
L210.3152 192.2933
" />
<path d="M210.3152 192.2933
L210.6723 192.2933
" />
<path d="M210.6723 192.2933
L210.8152 192.3648
" />
<path d="M210.8152 192.3648
L210.8866 192.4362
" />
<path d="M210.8866 192.4362
L210.9580 192.5790
" />
<path d="M210.9580 192.5790
L210.9580 192.7219
" />
<path d="M210.9580 192.7219
L210.8866 192.9362
" />
<path d="M210.8866 192.9362
L210.0295 193.7933
" />
<path d="M210.0295 193.7933
L210.9580 193.7933
" />
<path d="M211.4580 192.2933
L212.3866 192.2933
" />
<path d="M212.3866 192.2933
L211.8866 192.8648
" />
<path d="M211.8866 192.8648
L212.1009 192.8648
" />
<path d="M212.1009 192.8648
L212.2437 192.9362
" />
<path d="M212.2437 192.9362
L212.3152 193.0076
" />
<path d="M212.3152 193.0076
L212.3866 193.1505
" />
<path d="M212.3866 193.1505
L212.3866 193.5076
" />
<path d="M212.3866 193.5076
L212.3152 193.6505
" />
<path d="M212.3152 193.6505
L212.2437 193.7219
" />
<path d="M212.2437 193.7219
L212.1009 193.7933
" />
<path d="M212.1009 193.7933
L211.6723 193.7933
" />
<path d="M211.6723 193.7933
L211.5295 193.7219
" />
<path d="M211.5295 193.7219
L211.4580 193.6505
" />
<path d="M213.0295 193.2219
L214.1723 193.2219
" />
<path d="M215.1723 192.2933
L215.3152 192.2933
" />
<path d="M215.3152 192.2933
L215.4580 192.3648
" />
<path d="M215.4580 192.3648
L215.5295 192.4362
" />
<path d="M215.5295 192.4362
L215.6009 192.5790
" />
<path d="M215.6009 192.5790
L215.6723 192.8648
" />
<path d="M215.6723 192.8648
L215.6723 193.2219
" />
<path d="M215.6723 193.2219
L215.6009 193.5076
" />
<path d="M215.6009 193.5076
L215.5295 193.6505
" />
<path d="M215.5295 193.6505
L215.4580 193.7219
" />
<path d="M215.4580 193.7219
L215.3152 193.7933
" />
<path d="M215.3152 193.7933
L215.1723 193.7933
" />
<path d="M215.1723 193.7933
L215.0295 193.7219
" />
<path d="M215.0295 193.7219
L214.9580 193.6505
" />
<path d="M214.9580 193.6505
L214.8866 193.5076
" />
<path d="M214.8866 193.5076
L214.8152 193.2219
" />
<path d="M214.8152 193.2219
L214.8152 192.8648
" />
<path d="M214.8152 192.8648
L214.8866 192.5790
" />
<path d="M214.8866 192.5790
L214.9580 192.4362
" />
<path d="M214.9580 192.4362
L215.0295 192.3648
" />
<path d="M215.0295 192.3648
L215.1723 192.2933
" />
<path d="M216.1723 192.2933
L217.1723 192.2933
" />
<path d="M217.1723 192.2933
L216.5295 193.7933
" />
<path d="M217.7437 193.2219
L218.8866 193.2219
" />
<path d="M220.3866 193.7933
L219.5295 193.7933
" />
<path d="M219.9580 193.7933
L219.9580 192.2933
" />
<path d="M219.9580 192.2933
L219.8152 192.5076
" />
<path d="M219.8152 192.5076
L219.6723 192.6505
" />
<path d="M219.6723 192.6505
L219.5295 192.7219
" />
<path d="M221.6723 192.7933
L221.6723 193.7933
" />
<path d="M221.3152 192.2219
L220.9580 193.2933
" />
<path d="M220.9580 193.2933
L221.8866 193.2933
" />
</g></g>
<g style="fill:none; 
stroke:#000000; stroke-width:0.1500; stroke-opacity:1; 
stroke-linecap:round; stroke-linejoin:round;">
<path d="M177.0022 194.5072
L285.0022 194.5072
" />
</g>
<g style="fill:none; 
stroke:#000000; stroke-width:0.1500; stroke-opacity:1; 
stroke-linecap:round; stroke-linejoin:round;">
<text x="178.0022" y="196.6572"
textLength="20.8643" font-size="2.0000" lengthAdjust="spacingAndGlyphs"
text-anchor="start" opacity="0" stroke-opacity="0">KiCad E.D.A. 8.0.4</text>
<g class="stroked-text"><desc>KiCad E.D.A. 8.0.4</desc>
<path d="M178.4580 196.5933
L178.4580 195.0933
" />
<path d="M179.3152 196.5933
L178.6723 195.7362
" />
<path d="M179.3152 195.0933
L178.4580 195.9505
" />
<path d="M179.9580 196.5933
L179.9580 195.5933
" />
<path d="M179.9580 195.0933
L179.8866 195.1648
" />
<path d="M179.8866 195.1648
L179.9580 195.2362
" />
<path d="M179.9580 195.2362
L180.0295 195.1648
" />
<path d="M180.0295 195.1648
L179.9580 195.0933
" />
<path d="M179.9580 195.0933
L179.9580 195.2362
" />
<path d="M181.5295 196.4505
L181.4580 196.5219
" />
<path d="M181.4580 196.5219
L181.2437 196.5933
" />
<path d="M181.2437 196.5933
L181.1009 196.5933
" />
<path d="M181.1009 196.5933
L180.8866 196.5219
" />
<path d="M180.8866 196.5219
L180.7437 196.3790
" />
<path d="M180.7437 196.3790
L180.6723 196.2362
" />
<path d="M180.6723 196.2362
L180.6009 195.9505
" />
<path d="M180.6009 195.9505
L180.6009 195.7362
" />
<path d="M180.6009 195.7362
L180.6723 195.4505
" />
<path d="M180.6723 195.4505
L180.7437 195.3076
" />
<path d="M180.7437 195.3076
L180.8866 195.1648
" />
<path d="M180.8866 195.1648
L181.1009 195.0933
" />
<path d="M181.1009 195.0933
L181.2437 195.0933
" />
<path d="M181.2437 195.0933
L181.4580 195.1648
" />
<path d="M181.4580 195.1648
L181.5295 195.2362
" />
<path d="M182.8152 196.5933
L182.8152 195.8076
" />
<path d="M182.8152 195.8076
L182.7437 195.6648
" />
<path d="M182.7437 195.6648
L182.6009 195.5933
" />
<path d="M182.6009 195.5933
L182.3152 195.5933
" />
<path d="M182.3152 195.5933
L182.1723 195.6648
" />
<path d="M182.8152 196.5219
L182.6723 196.5933
" />
<path d="M182.6723 196.5933
L182.3152 196.5933
" />
<path d="M182.3152 196.5933
L182.1723 196.5219
" />
<path d="M182.1723 196.5219
L182.1009 196.3790
" />
<path d="M182.1009 196.3790
L182.1009 196.2362
" />
<path d="M182.1009 196.2362
L182.1723 196.0933
" />
<path d="M182.1723 196.0933
L182.3152 196.0219
" />
<path d="M182.3152 196.0219
L182.6723 196.0219
" />
<path d="M182.6723 196.0219
L182.8152 195.9505
" />
<path d="M184.1723 196.5933
L184.1723 195.0933
" />
<path d="M184.1723 196.5219
L184.0295 196.5933
" />
<path d="M184.0295 196.5933
L183.7437 196.5933
" />
<path d="M183.7437 196.5933
L183.6009 196.5219
" />
<path d="M183.6009 196.5219
L183.5295 196.4505
" />
<path d="M183.5295 196.4505
L183.4580 196.3076
" />
<path d="M183.4580 196.3076
L183.4580 195.8790
" />
<path d="M183.4580 195.8790
L183.5295 195.7362
" />
<path d="M183.5295 195.7362
L183.6009 195.6648
" />
<path d="M183.6009 195.6648
L183.7437 195.5933
" />
<path d="M183.7437 195.5933
L184.0295 195.5933
" />
<path d="M184.0295 195.5933
L184.1723 195.6648
" />
<path d="M186.0295 195.8076
L186.5295 195.8076
" />
<path d="M186.7437 196.5933
L186.0295 196.5933
" />
<path d="M186.0295 196.5933
L186.0295 195.0933
" />
<path d="M186.0295 195.0933
L186.7437 195.0933
" />
<path d="M187.3866 196.4505
L187.4580 196.5219
" />
<path d="M187.4580 196.5219
L187.3866 196.5933
" />
<path d="M187.3866 196.5933
L187.3152 196.5219
" />
<path d="M187.3152 196.5219
L187.3866 196.4505
" />
<path d="M187.3866 196.4505
L187.3866 196.5933
" />
<path d="M188.1009 196.5933
L188.1009 195.0933
" />
<path d="M188.1009 195.0933
L188.4580 195.0933
" />
<path d="M188.4580 195.0933
L188.6723 195.1648
" />
<path d="M188.6723 195.1648
L188.8152 195.3076
" />
<path d="M188.8152 195.3076
L188.8866 195.4505
" />
<path d="M188.8866 195.4505
L188.9580 195.7362
" />
<path d="M188.9580 195.7362
L188.9580 195.9505
" />
<path d="M188.9580 195.9505
L188.8866 196.2362
" />
<path d="M188.8866 196.2362
L188.8152 196.3790
" />
<path d="M188.8152 196.3790
L188.6723 196.5219
" />
<path d="M188.6723 196.5219
L188.4580 196.5933
" />
<path d="M188.4580 196.5933
L188.1009 196.5933
" />
<path d="M189.6009 196.4505
L189.6723 196.5219
" />
<path d="M189.6723 196.5219
L189.6009 196.5933
" />
<path d="M189.6009 196.5933
L189.5295 196.5219
" />
<path d="M189.5295 196.5219
L189.6009 196.4505
" />
<path d="M189.6009 196.4505
L189.6009 196.5933
" />
<path d="M190.2437 196.1648
L190.9580 196.1648
" />
<path d="M190.1009 196.5933
L190.6009 195.0933
" />
<path d="M190.6009 195.0933
L191.1009 196.5933
" />
<path d="M191.6009 196.4505
L191.6723 196.5219
" />
<path d="M191.6723 196.5219
L191.6009 196.5933
" />
<path d="M191.6009 196.5933
L191.5295 196.5219
" />
<path d="M191.5295 196.5219
L191.6009 196.4505
" />
<path d="M191.6009 196.4505
L191.6009 196.5933
" />
<path d="M193.6723 195.7362
L193.5295 195.6648
" />
<path d="M193.5295 195.6648
L193.4580 195.5933
" />
<path d="M193.4580 195.5933
L193.3866 195.4505
" />
<path d="M193.3866 195.4505
L193.3866 195.3790
" />
<path d="M193.3866 195.3790
L193.4580 195.2362
" />
<path d="M193.4580 195.2362
L193.5295 195.1648
" />
<path d="M193.5295 195.1648
L193.6723 195.0933
" />
<path d="M193.6723 195.0933
L193.9580 195.0933
" />
<path d="M193.9580 195.0933
L194.1009 195.1648
" />
<path d="M194.1009 195.1648
L194.1723 195.2362
" />
<path d="M194.1723 195.2362
L194.2437 195.3790
" />
<path d="M194.2437 195.3790
L194.2437 195.4505
" />
<path d="M194.2437 195.4505
L194.1723 195.5933
" />
<path d="M194.1723 195.5933
L194.1009 195.6648
" />
<path d="M194.1009 195.6648
L193.9580 195.7362
" />
<path d="M193.9580 195.7362
L193.6723 195.7362
" />
<path d="M193.6723 195.7362
L193.5295 195.8076
" />
<path d="M193.5295 195.8076
L193.4580 195.8790
" />
<path d="M193.4580 195.8790
L193.3866 196.0219
" />
<path d="M193.3866 196.0219
L193.3866 196.3076
" />
<path d="M193.3866 196.3076
L193.4580 196.4505
" />
<path d="M193.4580 196.4505
L193.5295 196.5219
" />
<path d="M193.5295 196.5219
L193.6723 196.5933
" />
<path d="M193.6723 196.5933
L193.9580 196.5933
" />
<path d="M193.9580 196.5933
L194.1009 196.5219
" />
<path d="M194.1009 196.5219
L194.1723 196.4505
" />
<path d="M194.1723 196.4505
L194.2437 196.3076
" />
<path d="M194.2437 196.3076
L194.2437 196.0219
" />
<path d="M194.2437 196.0219
L194.1723 195.8790
" />
<path d="M194.1723 195.8790
L194.1009 195.8076
" />
<path d="M194.1009 195.8076
L193.9580 195.7362
" />
<path d="M194.8866 196.4505
L194.9580 196.5219
" />
<path d="M194.9580 196.5219
L194.8866 196.5933
" />
<path d="M194.8866 196.5933
L194.8152 196.5219
" />
<path d="M194.8152 196.5219
L194.8866 196.4505
" />
<path d="M194.8866 196.4505
L194.8866 196.5933
" />
<path d="M195.8866 195.0933
L196.0295 195.0933
" />
<path d="M196.0295 195.0933
L196.1723 195.1648
" />
<path d="M196.1723 195.1648
L196.2437 195.2362
" />
<path d="M196.2437 195.2362
L196.3152 195.3790
" />
<path d="M196.3152 195.3790
L196.3866 195.6648
" />
<path d="M196.3866 195.6648
L196.3866 196.0219
" />
<path d="M196.3866 196.0219
L196.3152 196.3076
" />
<path d="M196.3152 196.3076
L196.2437 196.4505
" />
<path d="M196.2437 196.4505
L196.1723 196.5219
" />
<path d="M196.1723 196.5219
L196.0295 196.5933
" />
<path d="M196.0295 196.5933
L195.8866 196.5933
" />
<path d="M195.8866 196.5933
L195.7437 196.5219
" />
<path d="M195.7437 196.5219
L195.6723 196.4505
" />
<path d="M195.6723 196.4505
L195.6009 196.3076
" />
<path d="M195.6009 196.3076
L195.5295 196.0219
" />
<path d="M195.5295 196.0219
L195.5295 195.6648
" />
<path d="M195.5295 195.6648
L195.6009 195.3790
" />
<path d="M195.6009 195.3790
L195.6723 195.2362
" />
<path d="M195.6723 195.2362
L195.7437 195.1648
" />
<path d="M195.7437 195.1648
L195.8866 195.0933
" />
<path d="M197.0295 196.4505
L197.1009 196.5219
" />
<path d="M197.1009 196.5219
L197.0295 196.5933
" />
<path d="M197.0295 196.5933
L196.9580 196.5219
" />
<path d="M196.9580 196.5219
L197.0295 196.4505
" />
<path d="M197.0295 196.4505
L197.0295 196.5933
" />
<path d="M198.3866 195.5933
L198.3866 196.5933
" />
<path d="M198.0295 195.0219
L197.6723 196.0933
" />
<path d="M197.6723 196.0933
L198.6009 196.0933
" />
</g></g>
<g style="fill:none; 
stroke:#000000; stroke-width:0.1500; stroke-opacity:1; 
stroke-linecap:round; stroke-linejoin:round;">
<path d="M177.0022 191.5072
L285.0022 191.5072
" />
</g>
<g style="fill:none; 
stroke:#000000; stroke-width:0.3000; stroke-opacity:1; 
stroke-linecap:round; stroke-linejoin:round;">
<text x="263.0022" y="193.8572"
textLength="9.9571" font-size="2.0000" lengthAdjust="spacingAndGlyphs"
text-anchor="start" opacity="0" stroke-opacity="0">Rev: 1.0</text>
<g class="stroked-text"><desc>Rev: 1.0</desc>
<path d="M264.4139 193.7855
L263.9139 193.0712
" />
<path d="M263.5567 193.7855
L263.5567 192.2855
" />
<path d="M263.5567 192.2855
L264.1281 192.2855
" />
<path d="M264.1281 192.2855
L264.2710 192.3570
" />
<path d="M264.2710 192.3570
L264.3424 192.4284
" />
<path d="M264.3424 192.4284
L264.4139 192.5712
" />
<path d="M264.4139 192.5712
L264.4139 192.7855
" />
<path d="M264.4139 192.7855
L264.3424 192.9284
" />
<path d="M264.3424 192.9284
L264.2710 192.9998
" />
<path d="M264.2710 192.9998
L264.1281 193.0712
" />
<path d="M264.1281 193.0712
L263.5567 193.0712
" />
<path d="M265.6281 193.7141
L265.4853 193.7855
" />
<path d="M265.4853 193.7855
L265.1996 193.7855
" />
<path d="M265.1996 193.7855
L265.0567 193.7141
" />
<path d="M265.0567 193.7141
L264.9853 193.5712
" />
<path d="M264.9853 193.5712
L264.9853 192.9998
" />
<path d="M264.9853 192.9998
L265.0567 192.8570
" />
<path d="M265.0567 192.8570
L265.1996 192.7855
" />
<path d="M265.1996 192.7855
L265.4853 192.7855
" />
<path d="M265.4853 192.7855
L265.6281 192.8570
" />
<path d="M265.6281 192.8570
L265.6996 192.9998
" />
<path d="M265.6996 192.9998
L265.6996 193.1427
" />
<path d="M265.6996 193.1427
L264.9853 193.2855
" />
<path d="M266.1996 192.7855
L266.5567 193.7855
" />
<path d="M266.5567 193.7855
L266.9139 192.7855
" />
<path d="M267.4853 193.6427
L267.5567 193.7141
" />
<path d="M267.5567 193.7141
L267.4853 193.7855
" />
<path d="M267.4853 193.7855
L267.4139 193.7141
" />
<path d="M267.4139 193.7141
L267.4853 193.6427
" />
<path d="M267.4853 193.6427
L267.4853 193.7855
" />
<path d="M267.4853 192.8570
L267.5567 192.9284
" />
<path d="M267.5567 192.9284
L267.4853 192.9998
" />
<path d="M267.4853 192.9998
L267.4139 192.9284
" />
<path d="M267.4139 192.9284
L267.4853 192.8570
" />
<path d="M267.4853 192.8570
L267.4853 192.9998
" />
<path d="M270.1281 193.7855
L269.2710 193.7855
" />
<path d="M269.6996 193.7855
L269.6996 192.2855
" />
<path d="M269.6996 192.2855
L269.5567 192.4998
" />
<path d="M269.5567 192.4998
L269.4139 192.6427
" />
<path d="M269.4139 192.6427
L269.2710 192.7141
" />
<path d="M270.7710 193.6427
L270.8424 193.7141
" />
<path d="M270.8424 193.7141
L270.7710 193.7855
" />
<path d="M270.7710 193.7855
L270.6996 193.7141
" />
<path d="M270.6996 193.7141
L270.7710 193.6427
" />
<path d="M270.7710 193.6427
L270.7710 193.7855
" />
<path d="M271.7710 192.2855
L271.9139 192.2855
" />
<path d="M271.9139 192.2855
L272.0567 192.3570
" />
<path d="M272.0567 192.3570
L272.1281 192.4284
" />
<path d="M272.1281 192.4284
L272.1996 192.5712
" />
<path d="M272.1996 192.5712
L272.2710 192.8570
" />
<path d="M272.2710 192.8570
L272.2710 193.2141
" />
<path d="M272.2710 193.2141
L272.1996 193.4998
" />
<path d="M272.1996 193.4998
L272.1281 193.6427
" />
<path d="M272.1281 193.6427
L272.0567 193.7141
" />
<path d="M272.0567 193.7141
L271.9139 193.7855
" />
<path d="M271.9139 193.7855
L271.7710 193.7855
" />
<path d="M271.7710 193.7855
L271.6281 193.7141
" />
<path d="M271.6281 193.7141
L271.5567 193.6427
" />
<path d="M271.5567 193.6427
L271.4853 193.4998
" />
<path d="M271.4853 193.4998
L271.4139 193.2141
" />
<path d="M271.4139 193.2141
L271.4139 192.8570
" />
<path d="M271.4139 192.8570
L271.4853 192.5712
" />
<path d="M271.4853 192.5712
L271.5567 192.4284
" />
<path d="M271.5567 192.4284
L271.6281 192.3570
" />
<path d="M271.6281 192.3570
L271.7710 192.2855
" />
</g></g>
<g style="fill:none; 
stroke:#000000; stroke-width:0.1500; stroke-opacity:1; 
stroke-linecap:round; stroke-linejoin:round;">
<text x="178.0022" y="193.8572"
textLength="9.3643" font-size="2.0000" lengthAdjust="spacingAndGlyphs"
text-anchor="start" opacity="0" stroke-opacity="0">Size: A4</text>
<g class="stroked-text"><desc>Size: A4</desc>
<path d="M178.3866 193.7219
L178.6009 193.7933
" />
<path d="M178.6009 193.7933
L178.9580 193.7933
" />
<path d="M178.9580 193.7933
L179.1009 193.7219
" />
<path d="M179.1009 193.7219
L179.1723 193.6505
" />
<path d="M179.1723 193.6505
L179.2437 193.5076
" />
<path d="M179.2437 193.5076
L179.2437 193.3648
" />
<path d="M179.2437 193.3648
L179.1723 193.2219
" />
<path d="M179.1723 193.2219
L179.1009 193.1505
" />
<path d="M179.1009 193.1505
L178.9580 193.0790
" />
<path d="M178.9580 193.0790
L178.6723 193.0076
" />
<path d="M178.6723 193.0076
L178.5295 192.9362
" />
<path d="M178.5295 192.9362
L178.4580 192.8648
" />
<path d="M178.4580 192.8648
L178.3866 192.7219
" />
<path d="M178.3866 192.7219
L178.3866 192.5790
" />
<path d="M178.3866 192.5790
L178.4580 192.4362
" />
<path d="M178.4580 192.4362
L178.5295 192.3648
" />
<path d="M178.5295 192.3648
L178.6723 192.2933
" />
<path d="M178.6723 192.2933
L179.0295 192.2933
" />
<path d="M179.0295 192.2933
L179.2437 192.3648
" />
<path d="M179.8866 193.7933
L179.8866 192.7933
" />
<path d="M179.8866 192.2933
L179.8152 192.3648
" />
<path d="M179.8152 192.3648
L179.8866 192.4362
" />
<path d="M179.8866 192.4362
L179.9580 192.3648
" />
<path d="M179.9580 192.3648
L179.8866 192.2933
" />
<path d="M179.8866 192.2933
L179.8866 192.4362
" />
<path d="M180.4580 192.7933
L181.2437 192.7933
" />
<path d="M181.2437 192.7933
L180.4580 193.7933
" />
<path d="M180.4580 193.7933
L181.2437 193.7933
" />
<path d="M182.3866 193.7219
L182.2437 193.7933
" />
<path d="M182.2437 193.7933
L181.9580 193.7933
" />
<path d="M181.9580 193.7933
L181.8152 193.7219
" />
<path d="M181.8152 193.7219
L181.7437 193.5790
" />
<path d="M181.7437 193.5790
L181.7437 193.0076
" />
<path d="M181.7437 193.0076
L181.8152 192.8648
" />
<path d="M181.8152 192.8648
L181.9580 192.7933
" />
<path d="M181.9580 192.7933
L182.2437 192.7933
" />
<path d="M182.2437 192.7933
L182.3866 192.8648
" />
<path d="M182.3866 192.8648
L182.4580 193.0076
" />
<path d="M182.4580 193.0076
L182.4580 193.1505
" />
<path d="M182.4580 193.1505
L181.7437 193.2933
" />
<path d="M183.1009 193.6505
L183.1723 193.7219
" />
<path d="M183.1723 193.7219
L183.1009 193.7933
" />
<path d="M183.1009 193.7933
L183.0295 193.7219
" />
<path d="M183.0295 193.7219
L183.1009 193.6505
" />
<path d="M183.1009 193.6505
L183.1009 193.7933
" />
<path d="M183.1009 192.8648
L183.1723 192.9362
" />
<path d="M183.1723 192.9362
L183.1009 193.0076
" />
<path d="M183.1009 193.0076
L183.0295 192.9362
" />
<path d="M183.0295 192.9362
L183.1009 192.8648
" />
<path d="M183.1009 192.8648
L183.1009 193.0076
" />
<path d="M184.8866 193.3648
L185.6009 193.3648
" />
<path d="M184.7437 193.7933
L185.2437 192.2933
" />
<path d="M185.2437 192.2933
L185.7437 193.7933
" />
<path d="M186.8866 192.7933
L186.8866 193.7933
" />
<path d="M186.5295 192.2219
L186.1723 193.2933
" />
<path d="M186.1723 193.2933
L187.1009 193.2933
" />
</g></g>
<g style="fill:none; 
stroke:#000000; stroke-width:0.1500; stroke-opacity:1; 
stroke-linecap:round; stroke-linejoin:round;">
<text x="263.0022" y="196.6572"
textLength="8.5071" font-size="2.0000" lengthAdjust="spacingAndGlyphs"
text-anchor="start" opacity="0" stroke-opacity="0">Id: 1/1</text>
<g class="stroked-text"><desc>Id: 1/1</desc>
<path d="M263.4580 196.5933
L263.4580 195.0933
" />
<path d="M264.8152 196.5933
L264.8152 195.0933
" />
<path d="M264.8152 196.5219
L264.6723 196.5933
" />
<path d="M264.6723 196.5933
L264.3866 196.5933
" />
<path d="M264.3866 196.5933
L264.2437 196.5219
" />
<path d="M264.2437 196.5219
L264.1723 196.4505
" />
<path d="M264.1723 196.4505
L264.1009 196.3076
" />
<path d="M264.1009 196.3076
L264.1009 195.8790
" />
<path d="M264.1009 195.8790
L264.1723 195.7362
" />
<path d="M264.1723 195.7362
L264.2437 195.6648
" />
<path d="M264.2437 195.6648
L264.3866 195.5933
" />
<path d="M264.3866 195.5933
L264.6723 195.5933
" />
<path d="M264.6723 195.5933
L264.8152 195.6648
" />
<path d="M265.5295 196.4505
L265.6009 196.5219
" />
<path d="M265.6009 196.5219
L265.5295 196.5933
" />
<path d="M265.5295 196.5933
L265.4580 196.5219
" />
<path d="M265.4580 196.5219
L265.5295 196.4505
" />
<path d="M265.5295 196.4505
L265.5295 196.5933
" />
<path d="M265.5295 195.6648
L265.6009 195.7362
" />
<path d="M265.6009 195.7362
L265.5295 195.8076
" />
<path d="M265.5295 195.8076
L265.4580 195.7362
" />
<path d="M265.4580 195.7362
L265.5295 195.6648
" />
<path d="M265.5295 195.6648
L265.5295 195.8076
" />
<path d="M268.1723 196.5933
L267.3152 196.5933
" />
<path d="M267.7437 196.5933
L267.7437 195.0933
" />
<path d="M267.7437 195.0933
L267.6009 195.3076
" />
<path d="M267.6009 195.3076
L267.4580 195.4505
" />
<path d="M267.4580 195.4505
L267.3152 195.5219
" />
<path d="M269.8866 195.0219
L268.6009 196.9505
" />
<path d="M271.1723 196.5933
L270.3152 196.5933
" />
<path d="M270.7437 196.5933
L270.7437 195.0933
" />
<path d="M270.7437 195.0933
L270.6009 195.3076
" />
<path d="M270.6009 195.3076
L270.4580 195.4505
" />
<path d="M270.4580 195.4505
L270.3152 195.5219
" />
</g></g>
<g style="fill:none; 
stroke:#000000; stroke-width:0.1500; stroke-opacity:1; 
stroke-linecap:round; stroke-linejoin:round;">
<path d="M177.0022 187.5072
L285.0022 187.5072
" />
</g>
<g style="fill:none; 
stroke:#000000; stroke-width:0.4000; stroke-opacity:1; 
stroke-linecap:round; stroke-linejoin:round;">
<text x="178.0022" y="190.3072"
textLength="19.9429" font-size="2.6667" lengthAdjust="spacingAndGlyphs"
text-anchor="start" opacity="0" stroke-opacity="0">Title: temper</text>
<g class="stroked-text"><desc>Title: temper</desc>
<path d="M178.6939 188.2116
L179.8368 188.2116
" />
<path d="M179.0154 190.2116
L179.2654 188.2116
" />
<path d="M180.2535 190.2116
L180.4201 188.8783
" />
<path d="M180.5035 188.2116
L180.3963 188.3069
" />
<path d="M180.3963 188.3069
L180.4796 188.4021
" />
<path d="M180.4796 188.4021
L180.5868 188.3069
" />
<path d="M180.5868 188.3069
L180.5035 188.2116
" />
<path d="M180.5035 188.2116
L180.4796 188.4021
" />
<path d="M181.0868 188.8783
L181.8487 188.8783
" />
<path d="M181.4558 188.2116
L181.2415 189.9259
" />
<path d="M181.2415 189.9259
L181.3130 190.1164
" />
<path d="M181.3130 190.1164
L181.4915 190.2116
" />
<path d="M181.4915 190.2116
L181.6820 190.2116
" />
<path d="M182.6344 190.2116
L182.4558 190.1164
" />
<path d="M182.4558 190.1164
L182.3844 189.9259
" />
<path d="M182.3844 189.9259
L182.5987 188.2116
" />
<path d="M184.1701 190.1164
L183.9677 190.2116
" />
<path d="M183.9677 190.2116
L183.5868 190.2116
" />
<path d="M183.5868 190.2116
L183.4082 190.1164
" />
<path d="M183.4082 190.1164
L183.3368 189.9259
" />
<path d="M183.3368 189.9259
L183.4320 189.1640
" />
<path d="M183.4320 189.1640
L183.5511 188.9735
" />
<path d="M183.5511 188.9735
L183.7535 188.8783
" />
<path d="M183.7535 188.8783
L184.1344 188.8783
" />
<path d="M184.1344 188.8783
L184.3130 188.9735
" />
<path d="M184.3130 188.9735
L184.3844 189.1640
" />
<path d="M184.3844 189.1640
L184.3606 189.3545
" />
<path d="M184.3606 189.3545
L183.3844 189.5450
" />
<path d="M185.1344 190.0212
L185.2177 190.1164
" />
<path d="M185.2177 190.1164
L185.1106 190.2116
" />
<path d="M185.1106 190.2116
L185.0273 190.1164
" />
<path d="M185.0273 190.1164
L185.1344 190.0212
" />
<path d="M185.1344 190.0212
L185.1106 190.2116
" />
<path d="M185.2654 188.9735
L185.3487 189.0688
" />
<path d="M185.3487 189.0688
L185.2415 189.1640
" />
<path d="M185.2415 189.1640
L185.1582 189.0688
" />
<path d="M185.1582 189.0688
L185.2654 188.9735
" />
<path d="M185.2654 188.9735
L185.2415 189.1640
" />
<path d="M187.4677 188.8783
L188.2296 188.8783
" />
<path d="M187.8368 188.2116
L187.6225 189.9259
" />
<path d="M187.6225 189.9259
L187.6939 190.1164
" />
<path d="M187.6939 190.1164
L187.8725 190.2116
" />
<path d="M187.8725 190.2116
L188.0630 190.2116
" />
<path d="M189.5035 190.1164
L189.3011 190.2116
" />
<path d="M189.3011 190.2116
L188.9201 190.2116
" />
<path d="M188.9201 190.2116
L188.7415 190.1164
" />
<path d="M188.7415 190.1164
L188.6701 189.9259
" />
<path d="M188.6701 189.9259
L188.7654 189.1640
" />
<path d="M188.7654 189.1640
L188.8844 188.9735
" />
<path d="M188.8844 188.9735
L189.0868 188.8783
" />
<path d="M189.0868 188.8783
L189.4677 188.8783
" />
<path d="M189.4677 188.8783
L189.6463 188.9735
" />
<path d="M189.6463 188.9735
L189.7177 189.1640
" />
<path d="M189.7177 189.1640
L189.6939 189.3545
" />
<path d="M189.6939 189.3545
L188.7177 189.5450
" />
<path d="M190.4439 190.2116
L190.6106 188.8783
" />
<path d="M190.5868 189.0688
L190.6939 188.9735
" />
<path d="M190.6939 188.9735
L190.8963 188.8783
" />
<path d="M190.8963 188.8783
L191.1820 188.8783
" />
<path d="M191.1820 188.8783
L191.3606 188.9735
" />
<path d="M191.3606 188.9735
L191.4320 189.1640
" />
<path d="M191.4320 189.1640
L191.3011 190.2116
" />
<path d="M191.4320 189.1640
L191.5511 188.9735
" />
<path d="M191.5511 188.9735
L191.7535 188.8783
" />
<path d="M191.7535 188.8783
L192.0392 188.8783
" />
<path d="M192.0392 188.8783
L192.2177 188.9735
" />
<path d="M192.2177 188.9735
L192.2892 189.1640
" />
<path d="M192.2892 189.1640
L192.1582 190.2116
" />
<path d="M193.2773 188.8783
L193.0273 190.8783
" />
<path d="M193.2654 188.9735
L193.4677 188.8783
" />
<path d="M193.4677 188.8783
L193.8487 188.8783
" />
<path d="M193.8487 188.8783
L194.0273 188.9735
" />
<path d="M194.0273 188.9735
L194.1106 189.0688
" />
<path d="M194.1106 189.0688
L194.1820 189.2593
" />
<path d="M194.1820 189.2593
L194.1106 189.8307
" />
<path d="M194.1106 189.8307
L193.9915 190.0212
" />
<path d="M193.9915 190.0212
L193.8844 190.1164
" />
<path d="M193.8844 190.1164
L193.6820 190.2116
" />
<path d="M193.6820 190.2116
L193.3011 190.2116
" />
<path d="M193.3011 190.2116
L193.1225 190.1164
" />
<path d="M195.6939 190.1164
L195.4915 190.2116
" />
<path d="M195.4915 190.2116
L195.1106 190.2116
" />
<path d="M195.1106 190.2116
L194.9320 190.1164
" />
<path d="M194.9320 190.1164
L194.8606 189.9259
" />
<path d="M194.8606 189.9259
L194.9558 189.1640
" />
<path d="M194.9558 189.1640
L195.0749 188.9735
" />
<path d="M195.0749 188.9735
L195.2773 188.8783
" />
<path d="M195.2773 188.8783
L195.6582 188.8783
" />
<path d="M195.6582 188.8783
L195.8368 188.9735
" />
<path d="M195.8368 188.9735
L195.9082 189.1640
" />
<path d="M195.9082 189.1640
L195.8844 189.3545
" />
<path d="M195.8844 189.3545
L194.9082 189.5450
" />
<path d="M196.6344 190.2116
L196.8011 188.8783
" />
<path d="M196.7535 189.2593
L196.8725 189.0688
" />
<path d="M196.8725 189.0688
L196.9796 188.9735
" />
<path d="M196.9796 188.9735
L197.1820 188.8783
" />
<path d="M197.1820 188.8783
L197.3725 188.8783
" />
</g></g>
<g style="fill:none; 
stroke:#000000; stroke-width:0.1500; stroke-opacity:1; 
stroke-linecap:round; stroke-linejoin:round;">
<text x="178.0022" y="186.4572"
textLength="34.1500" font-size="2.0000" lengthAdjust="spacingAndGlyphs"
text-anchor="start" opacity="0" stroke-opacity="0">File: CustomTemper.kicad_pcb</text>
<g class="stroked-text"><desc>File: CustomTemper.kicad_pcb</desc>
<path d="M178.9580 185.6076
L178.4580 185.6076
" />
<path d="M178.4580 186.3933
L178.4580 184.8933
" />
<path d="M178.4580 184.8933
L179.1723 184.8933
" />
<path d="M179.7437 186.3933
L179.7437 185.3933
" />
<path d="M179.7437 184.8933
L179.6723 184.9648
" />
<path d="M179.6723 184.9648
L179.7437 185.0362
" />
<path d="M179.7437 185.0362
L179.8152 184.9648
" />
<path d="M179.8152 184.9648
L179.7437 184.8933
" />
<path d="M179.7437 184.8933
L179.7437 185.0362
" />
<path d="M180.6723 186.3933
L180.5295 186.3219
" />
<path d="M180.5295 186.3219
L180.4580 186.1790
" />
<path d="M180.4580 186.1790
L180.4580 184.8933
" />
<path d="M181.8152 186.3219
L181.6723 186.3933
" />
<path d="M181.6723 186.3933
L181.3866 186.3933
" />
<path d="M181.3866 186.3933
L181.2437 186.3219
" />
<path d="M181.2437 186.3219
L181.1723 186.1790
" />
<path d="M181.1723 186.1790
L181.1723 185.6076
" />
<path d="M181.1723 185.6076
L181.2437 185.4648
" />
<path d="M181.2437 185.4648
L181.3866 185.3933
" />
<path d="M181.3866 185.3933
L181.6723 185.3933
" />
<path d="M181.6723 185.3933
L181.8152 185.4648
" />
<path d="M181.8152 185.4648
L181.8866 185.6076
" />
<path d="M181.8866 185.6076
L181.8866 185.7505
" />
<path d="M181.8866 185.7505
L181.1723 185.8933
" />
<path d="M182.5295 186.2505
L182.6009 186.3219
" />
<path d="M182.6009 186.3219
L182.5295 186.3933
" />
<path d="M182.5295 186.3933
L182.4580 186.3219
" />
<path d="M182.4580 186.3219
L182.5295 186.2505
" />
<path d="M182.5295 186.2505
L182.5295 186.3933
" />
<path d="M182.5295 185.4648
L182.6009 185.5362
" />
<path d="M182.6009 185.5362
L182.5295 185.6076
" />
<path d="M182.5295 185.6076
L182.4580 185.5362
" />
<path d="M182.4580 185.5362
L182.5295 185.4648
" />
<path d="M182.5295 185.4648
L182.5295 185.6076
" />
<path d="M185.2437 186.2505
L185.1723 186.3219
" />
<path d="M185.1723 186.3219
L184.9580 186.3933
" />
<path d="M184.9580 186.3933
L184.8152 186.3933
" />
<path d="M184.8152 186.3933
L184.6009 186.3219
" />
<path d="M184.6009 186.3219
L184.4580 186.1790
" />
<path d="M184.4580 186.1790
L184.3866 186.0362
" />
<path d="M184.3866 186.0362
L184.3152 185.7505
" />
<path d="M184.3152 185.7505
L184.3152 185.5362
" />
<path d="M184.3152 185.5362
L184.3866 185.2505
" />
<path d="M184.3866 185.2505
L184.4580 185.1076
" />
<path d="M184.4580 185.1076
L184.6009 184.9648
" />
<path d="M184.6009 184.9648
L184.8152 184.8933
" />
<path d="M184.8152 184.8933
L184.9580 184.8933
" />
<path d="M184.9580 184.8933
L185.1723 184.9648
" />
<path d="M185.1723 184.9648
L185.2437 185.0362
" />
<path d="M186.5295 185.3933
L186.5295 186.3933
" />
<path d="M185.8866 185.3933
L185.8866 186.1790
" />
<path d="M185.8866 186.1790
L185.9580 186.3219
" />
<path d="M185.9580 186.3219
L186.1009 186.3933
" />
<path d="M186.1009 186.3933
L186.3152 186.3933
" />
<path d="M186.3152 186.3933
L186.4580 186.3219
" />
<path d="M186.4580 186.3219
L186.5295 186.2505
" />
<path d="M187.1723 186.3219
L187.3152 186.3933
" />
<path d="M187.3152 186.3933
L187.6009 186.3933
" />
<path d="M187.6009 186.3933
L187.7437 186.3219
" />
<path d="M187.7437 186.3219
L187.8152 186.1790
" />
<path d="M187.8152 186.1790
L187.8152 186.1076
" />
<path d="M187.8152 186.1076
L187.7437 185.9648
" />
<path d="M187.7437 185.9648
L187.6009 185.8933
" />
<path d="M187.6009 185.8933
L187.3866 185.8933
" />
<path d="M187.3866 185.8933
L187.2437 185.8219
" />
<path d="M187.2437 185.8219
L187.1723 185.6790
" />
<path d="M187.1723 185.6790
L187.1723 185.6076
" />
<path d="M187.1723 185.6076
L187.2437 185.4648
" />
<path d="M187.2437 185.4648
L187.3866 185.3933
" />
<path d="M187.3866 185.3933
L187.6009 185.3933
" />
<path d="M187.6009 185.3933
L187.7437 185.4648
" />
<path d="M188.2437 185.3933
L188.8152 185.3933
" />
<path d="M188.4580 184.8933
L188.4580 186.1790
" />
<path d="M188.4580 186.1790
L188.5295 186.3219
" />
<path d="M188.5295 186.3219
L188.6723 186.3933
" />
<path d="M188.6723 186.3933
L188.8152 186.3933
" />
<path d="M189.5295 186.3933
L189.3866 186.3219
" />
<path d="M189.3866 186.3219
L189.3152 186.2505
" />
<path d="M189.3152 186.2505
L189.2437 186.1076
" />
<path d="M189.2437 186.1076
L189.2437 185.6790
" />
<path d="M189.2437 185.6790
L189.3152 185.5362
" />
<path d="M189.3152 185.5362
L189.3866 185.4648
" />
<path d="M189.3866 185.4648
L189.5295 185.3933
" />
<path d="M189.5295 185.3933
L189.7437 185.3933
" />
<path d="M189.7437 185.3933
L189.8866 185.4648
" />
<path d="M189.8866 185.4648
L189.9580 185.5362
" />
<path d="M189.9580 185.5362
L190.0295 185.6790
" />
<path d="M190.0295 185.6790
L190.0295 186.1076
" />
<path d="M190.0295 186.1076
L189.9580 186.2505
" />
<path d="M189.9580 186.2505
L189.8866 186.3219
" />
<path d="M189.8866 186.3219
L189.7437 186.3933
" />
<path d="M189.7437 186.3933
L189.5295 186.3933
" />
<path d="M190.6723 186.3933
L190.6723 185.3933
" />
<path d="M190.6723 185.5362
L190.7437 185.4648
" />
<path d="M190.7437 185.4648
L190.8866 185.3933
" />
<path d="M190.8866 185.3933
L191.1009 185.3933
" />
<path d="M191.1009 185.3933
L191.2437 185.4648
" />
<path d="M191.2437 185.4648
L191.3152 185.6076
" />
<path d="M191.3152 185.6076
L191.3152 186.3933
" />
<path d="M191.3152 185.6076
L191.3866 185.4648
" />
<path d="M191.3866 185.4648
L191.5295 185.3933
" />
<path d="M191.5295 185.3933
L191.7437 185.3933
" />
<path d="M191.7437 185.3933
L191.8866 185.4648
" />
<path d="M191.8866 185.4648
L191.9580 185.6076
" />
<path d="M191.9580 185.6076
L191.9580 186.3933
" />
<path d="M192.4580 184.8933
L193.3152 184.8933
" />
<path d="M192.8866 186.3933
L192.8866 184.8933
" />
<path d="M194.3866 186.3219
L194.2437 186.3933
" />
<path d="M194.2437 186.3933
L193.9580 186.3933
" />
<path d="M193.9580 186.3933
L193.8152 186.3219
" />
<path d="M193.8152 186.3219
L193.7437 186.1790
" />
<path d="M193.7437 186.1790
L193.7437 185.6076
" />
<path d="M193.7437 185.6076
L193.8152 185.4648
" />
<path d="M193.8152 185.4648
L193.9580 185.3933
" />
<path d="M193.9580 185.3933
L194.2437 185.3933
" />
<path d="M194.2437 185.3933
L194.3866 185.4648
" />
<path d="M194.3866 185.4648
L194.4580 185.6076
" />
<path d="M194.4580 185.6076
L194.4580 185.7505
" />
<path d="M194.4580 185.7505
L193.7437 185.8933
" />
<path d="M195.1009 186.3933
L195.1009 185.3933
" />
<path d="M195.1009 185.5362
L195.1723 185.4648
" />
<path d="M195.1723 185.4648
L195.3152 185.3933
" />
<path d="M195.3152 185.3933
L195.5295 185.3933
" />
<path d="M195.5295 185.3933
L195.6723 185.4648
" />
<path d="M195.6723 185.4648
L195.7437 185.6076
" />
<path d="M195.7437 185.6076
L195.7437 186.3933
" />
<path d="M195.7437 185.6076
L195.8152 185.4648
" />
<path d="M195.8152 185.4648
L195.9580 185.3933
" />
<path d="M195.9580 185.3933
L196.1723 185.3933
" />
<path d="M196.1723 185.3933
L196.3152 185.4648
" />
<path d="M196.3152 185.4648
L196.3866 185.6076
" />
<path d="M196.3866 185.6076
L196.3866 186.3933
" />
<path d="M197.1009 185.3933
L197.1009 186.8933
" />
<path d="M197.1009 185.4648
L197.2437 185.3933
" />
<path d="M197.2437 185.3933
L197.5295 185.3933
" />
<path d="M197.5295 185.3933
L197.6723 185.4648
" />
<path d="M197.6723 185.4648
L197.7437 185.5362
" />
<path d="M197.7437 185.5362
L197.8152 185.6790
" />
<path d="M197.8152 185.6790
L197.8152 186.1076
" />
<path d="M197.8152 186.1076
L197.7437 186.2505
" />
<path d="M197.7437 186.2505
L197.6723 186.3219
" />
<path d="M197.6723 186.3219
L197.5295 186.3933
" />
<path d="M197.5295 186.3933
L197.2437 186.3933
" />
<path d="M197.2437 186.3933
L197.1009 186.3219
" />
<path d="M199.0295 186.3219
L198.8866 186.3933
" />
<path d="M198.8866 186.3933
L198.6009 186.3933
" />
<path d="M198.6009 186.3933
L198.4580 186.3219
" />
<path d="M198.4580 186.3219
L198.3866 186.1790
" />
<path d="M198.3866 186.1790
L198.3866 185.6076
" />
<path d="M198.3866 185.6076
L198.4580 185.4648
" />
<path d="M198.4580 185.4648
L198.6009 185.3933
" />
<path d="M198.6009 185.3933
L198.8866 185.3933
" />
<path d="M198.8866 185.3933
L199.0295 185.4648
" />
<path d="M199.0295 185.4648
L199.1009 185.6076
" />
<path d="M199.1009 185.6076
L199.1009 185.7505
" />
<path d="M199.1009 185.7505
L198.3866 185.8933
" />
<path d="M199.7437 186.3933
L199.7437 185.3933
" />
<path d="M199.7437 185.6790
L199.8152 185.5362
" />
<path d="M199.8152 185.5362
L199.8866 185.4648
" />
<path d="M199.8866 185.4648
L200.0295 185.3933
" />
<path d="M200.0295 185.3933
L200.1723 185.3933
" />
<path d="M200.6723 186.2505
L200.7437 186.3219
" />
<path d="M200.7437 186.3219
L200.6723 186.3933
" />
<path d="M200.6723 186.3933
L200.6009 186.3219
" />
<path d="M200.6009 186.3219
L200.6723 186.2505
" />
<path d="M200.6723 186.2505
L200.6723 186.3933
" />
<path d="M201.3866 186.3933
L201.3866 184.8933
" />
<path d="M201.5295 185.8219
L201.9580 186.3933
" />
<path d="M201.9580 185.3933
L201.3866 185.9648
" />
<path d="M202.6009 186.3933
L202.6009 185.3933
" />
<path d="M202.6009 184.8933
L202.5295 184.9648
" />
<path d="M202.5295 184.9648
L202.6009 185.0362
" />
<path d="M202.6009 185.0362
L202.6723 184.9648
" />
<path d="M202.6723 184.9648
L202.6009 184.8933
" />
<path d="M202.6009 184.8933
L202.6009 185.0362
" />
<path d="M203.9580 186.3219
L203.8152 186.3933
" />
<path d="M203.8152 186.3933
L203.5295 186.3933
" />
<path d="M203.5295 186.3933
L203.3866 186.3219
" />
<path d="M203.3866 186.3219
L203.3152 186.2505
" />
<path d="M203.3152 186.2505
L203.2437 186.1076
" />
<path d="M203.2437 186.1076
L203.2437 185.6790
" />
<path d="M203.2437 185.6790
L203.3152 185.5362
" />
<path d="M203.3152 185.5362
L203.3866 185.4648
" />
<path d="M203.3866 185.4648
L203.5295 185.3933
" />
<path d="M203.5295 185.3933
L203.8152 185.3933
" />
<path d="M203.8152 185.3933
L203.9580 185.4648
" />
<path d="M205.2437 186.3933
L205.2437 185.6076
" />
<path d="M205.2437 185.6076
L205.1723 185.4648
" />
<path d="M205.1723 185.4648
L205.0295 185.3933
" />
<path d="M205.0295 185.3933
L204.7437 185.3933
" />
<path d="M204.7437 185.3933
L204.6009 185.4648
" />
<path d="M205.2437 186.3219
L205.1009 186.3933
" />
<path d="M205.1009 186.3933
L204.7437 186.3933
" />
<path d="M204.7437 186.3933
L204.6009 186.3219
" />
<path d="M204.6009 186.3219
L204.5295 186.1790
" />
<path d="M204.5295 186.1790
L204.5295 186.0362
" />
<path d="M204.5295 186.0362
L204.6009 185.8933
" />
<path d="M204.6009 185.8933
L204.7437 185.8219
" />
<path d="M204.7437 185.8219
L205.1009 185.8219
" />
<path d="M205.1009 185.8219
L205.2437 185.7505
" />
<path d="M206.6009 186.3933
L206.6009 184.8933
" />
<path d="M206.6009 186.3219
L206.4580 186.3933
" />
<path d="M206.4580 186.3933
L206.1723 186.3933
" />
<path d="M206.1723 186.3933
L206.0295 186.3219
" />
<path d="M206.0295 186.3219
L205.9580 186.2505
" />
<path d="M205.9580 186.2505
L205.8866 186.1076
" />
<path d="M205.8866 186.1076
L205.8866 185.6790
" />
<path d="M205.8866 185.6790
L205.9580 185.5362
" />
<path d="M205.9580 185.5362
L206.0295 185.4648
" />
<path d="M206.0295 185.4648
L206.1723 185.3933
" />
<path d="M206.1723 185.3933
L206.4580 185.3933
" />
<path d="M206.4580 185.3933
L206.6009 185.4648
" />
<path d="M206.9580 186.5362
L208.1009 186.5362
" />
<path d="M208.4580 185.3933
L208.4580 186.8933
" />
<path d="M208.4580 185.4648
L208.6009 185.3933
" />
<path d="M208.6009 185.3933
L208.8866 185.3933
" />
<path d="M208.8866 185.3933
L209.0295 185.4648
" />
<path d="M209.0295 185.4648
L209.1009 185.5362
" />
<path d="M209.1009 185.5362
L209.1723 185.6790
" />
<path d="M209.1723 185.6790
L209.1723 186.1076
" />
<path d="M209.1723 186.1076
L209.1009 186.2505
" />
<path d="M209.1009 186.2505
L209.0295 186.3219
" />
<path d="M209.0295 186.3219
L208.8866 186.3933
" />
<path d="M208.8866 186.3933
L208.6009 186.3933
" />
<path d="M208.6009 186.3933
L208.4580 186.3219
" />
<path d="M210.4580 186.3219
L210.3152 186.3933
" />
<path d="M210.3152 186.3933
L210.0295 186.3933
" />
<path d="M210.0295 186.3933
L209.8866 186.3219
" />
<path d="M209.8866 186.3219
L209.8152 186.2505
" />
<path d="M209.8152 186.2505
L209.7437 186.1076
" />
<path d="M209.7437 186.1076
L209.7437 185.6790
" />
<path d="M209.7437 185.6790
L209.8152 185.5362
" />
<path d="M209.8152 185.5362
L209.8866 185.4648
" />
<path d="M209.8866 185.4648
L210.0295 185.3933
" />
<path d="M210.0295 185.3933
L210.3152 185.3933
" />
<path d="M210.3152 185.3933
L210.4580 185.4648
" />
<path d="M211.1009 186.3933
L211.1009 184.8933
" />
<path d="M211.1009 185.4648
L211.2437 185.3933
" />
<path d="M211.2437 185.3933
L211.5295 185.3933
" />
<path d="M211.5295 185.3933
L211.6723 185.4648
" />
<path d="M211.6723 185.4648
L211.7437 185.5362
" />
<path d="M211.7437 185.5362
L211.8152 185.6790
" />
<path d="M211.8152 185.6790
L211.8152 186.1076
" />
<path d="M211.8152 186.1076
L211.7437 186.2505
" />
<path d="M211.7437 186.2505
L211.6723 186.3219
" />
<path d="M211.6723 186.3219
L211.5295 186.3933
" />
<path d="M211.5295 186.3933
L211.2437 186.3933
" />
<path d="M211.2437 186.3933
L211.1009 186.3219
" />
</g></g>
<g style="fill:none; 
stroke:#000000; stroke-width:0.1500; stroke-opacity:1; 
stroke-linecap:round; stroke-linejoin:round;">
<path d="M177.0022 181.5072
L285.0022 181.5072
" />
</g>
<g style="fill:none; 
stroke:#000000; stroke-width:0.1500; stroke-opacity:1; 
stroke-linecap:round; stroke-linejoin:round;">
<text x="178.0022" y="183.7572"
textLength="8.2214" font-size="2.0000" lengthAdjust="spacingAndGlyphs"
text-anchor="start" opacity="0" stroke-opacity="0">Sheet: </text>
<g class="stroked-text"><desc>Sheet: </desc>
<path d="M178.3866 183.6219
L178.6009 183.6933
" />
<path d="M178.6009 183.6933
L178.9580 183.6933
" />
<path d="M178.9580 183.6933
L179.1009 183.6219
" />
<path d="M179.1009 183.6219
L179.1723 183.5505
" />
<path d="M179.1723 183.5505
L179.2437 183.4076
" />
<path d="M179.2437 183.4076
L179.2437 183.2648
" />
<path d="M179.2437 183.2648
L179.1723 183.1219
" />
<path d="M179.1723 183.1219
L179.1009 183.0505
" />
<path d="M179.1009 183.0505
L178.9580 182.9790
" />
<path d="M178.9580 182.9790
L178.6723 182.9076
" />
<path d="M178.6723 182.9076
L178.5295 182.8362
" />
<path d="M178.5295 182.8362
L178.4580 182.7648
" />
<path d="M178.4580 182.7648
L178.3866 182.6219
" />
<path d="M178.3866 182.6219
L178.3866 182.4790
" />
<path d="M178.3866 182.4790
L178.4580 182.3362
" />
<path d="M178.4580 182.3362
L178.5295 182.2648
" />
<path d="M178.5295 182.2648
L178.6723 182.1933
" />
<path d="M178.6723 182.1933
L179.0295 182.1933
" />
<path d="M179.0295 182.1933
L179.2437 182.2648
" />
<path d="M179.8866 183.6933
L179.8866 182.1933
" />
<path d="M180.5295 183.6933
L180.5295 182.9076
" />
<path d="M180.5295 182.9076
L180.4580 182.7648
" />
<path d="M180.4580 182.7648
L180.3152 182.6933
" />
<path d="M180.3152 182.6933
L180.1009 182.6933
" />
<path d="M180.1009 182.6933
L179.9580 182.7648
" />
<path d="M179.9580 182.7648
L179.8866 182.8362
" />
<path d="M181.8152 183.6219
L181.6723 183.6933
" />
<path d="M181.6723 183.6933
L181.3866 183.6933
" />
<path d="M181.3866 183.6933
L181.2437 183.6219
" />
<path d="M181.2437 183.6219
L181.1723 183.4790
" />
<path d="M181.1723 183.4790
L181.1723 182.9076
" />
<path d="M181.1723 182.9076
L181.2437 182.7648
" />
<path d="M181.2437 182.7648
L181.3866 182.6933
" />
<path d="M181.3866 182.6933
L181.6723 182.6933
" />
<path d="M181.6723 182.6933
L181.8152 182.7648
" />
<path d="M181.8152 182.7648
L181.8866 182.9076
" />
<path d="M181.8866 182.9076
L181.8866 183.0505
" />
<path d="M181.8866 183.0505
L181.1723 183.1933
" />
<path d="M183.1009 183.6219
L182.9580 183.6933
" />
<path d="M182.9580 183.6933
L182.6723 183.6933
" />
<path d="M182.6723 183.6933
L182.5295 183.6219
" />
<path d="M182.5295 183.6219
L182.4580 183.4790
" />
<path d="M182.4580 183.4790
L182.4580 182.9076
" />
<path d="M182.4580 182.9076
L182.5295 182.7648
" />
<path d="M182.5295 182.7648
L182.6723 182.6933
" />
<path d="M182.6723 182.6933
L182.9580 182.6933
" />
<path d="M182.9580 182.6933
L183.1009 182.7648
" />
<path d="M183.1009 182.7648
L183.1723 182.9076
" />
<path d="M183.1723 182.9076
L183.1723 183.0505
" />
<path d="M183.1723 183.0505
L182.4580 183.1933
" />
<path d="M183.6009 182.6933
L184.1723 182.6933
" />
<path d="M183.8152 182.1933
L183.8152 183.4790
" />
<path d="M183.8152 183.4790
L183.8866 183.6219
" />
<path d="M183.8866 183.6219
L184.0295 183.6933
" />
<path d="M184.0295 183.6933
L184.1723 183.6933
" />
<path d="M184.6723 183.5505
L184.7437 183.6219
" />
<path d="M184.7437 183.6219
L184.6723 183.6933
" />
<path d="M184.6723 183.6933
L184.6009 183.6219
" />
<path d="M184.6009 183.6219
L184.6723 183.5505
" />
<path d="M184.6723 183.5505
L184.6723 183.6933
" />
<path d="M184.6723 182.7648
L184.7437 182.8362
" />
<path d="M184.7437 182.8362
L184.6723 182.9076
" />
<path d="M184.6723 182.9076
L184.6009 182.8362
" />
<path d="M184.6009 182.8362
L184.6723 182.7648
" />
<path d="M184.6723 182.7648
L184.6723 182.9076
" />
</g></g>
<g style="fill:none; 
stroke:#000000; stroke-width:0.3000; stroke-opacity:1; 
stroke-linecap:round; stroke-linejoin:round;">
<text x="178.0022" y="180.7572"
textLength="10.8143" font-size="2.0000" lengthAdjust="spacingAndGlyphs"
text-anchor="start" opacity="0" stroke-opacity="0">raeedcho</text>
<g class="stroked-text"><desc>raeedcho</desc>
<path d="M178.5567 180.6855
L178.5567 179.6855
" />
<path d="M178.5567 179.9712
L178.6281 179.8284
" />
<path d="M178.6281 179.8284
L178.6996 179.7570
" />
<path d="M178.6996 179.7570
L178.8424 179.6855
" />
<path d="M178.8424 179.6855
L178.9853 179.6855
" />
<path d="M180.1281 180.6855
L180.1281 179.8998
" />
<path d="M180.1281 179.8998
L180.0567 179.7570
" />
<path d="M180.0567 179.7570
L179.9139 179.6855
" />
<path d="M179.9139 179.6855
L179.6281 179.6855
" />
<path d="M179.6281 179.6855
L179.4853 179.7570
" />
<path d="M180.1281 180.6141
L179.9853 180.6855
" />
<path d="M179.9853 180.6855
L179.6281 180.6855
" />
<path d="M179.6281 180.6855
L179.4853 180.6141
" />
<path d="M179.4853 180.6141
L179.4139 180.4712
" />
<path d="M179.4139 180.4712
L179.4139 180.3284
" />
<path d="M179.4139 180.3284
L179.4853 180.1855
" />
<path d="M179.4853 180.1855
L179.6281 180.1141
" />
<path d="M179.6281 180.1141
L179.9853 180.1141
" />
<path d="M179.9853 180.1141
L180.1281 180.0427
" />
<path d="M181.4139 180.6141
L181.2710 180.6855
" />
<path d="M181.2710 180.6855
L180.9853 180.6855
" />
<path d="M180.9853 180.6855
L180.8424 180.6141
" />
<path d="M180.8424 180.6141
L180.7710 180.4712
" />
<path d="M180.7710 180.4712
L180.7710 179.8998
" />
<path d="M180.7710 179.8998
L180.8424 179.7570
" />
<path d="M180.8424 179.7570
L180.9853 179.6855
" />
<path d="M180.9853 179.6855
L181.2710 179.6855
" />
<path d="M181.2710 179.6855
L181.4139 179.7570
" />
<path d="M181.4139 179.7570
L181.4853 179.8998
" />
<path d="M181.4853 179.8998
L181.4853 180.0427
" />
<path d="M181.4853 180.0427
L180.7710 180.1855
" />
<path d="M182.6996 180.6141
L182.5567 180.6855
" />
<path d="M182.5567 180.6855
L182.2710 180.6855
" />
<path d="M182.2710 180.6855
L182.1281 180.6141
" />
<path d="M182.1281 180.6141
L182.0567 180.4712
" />
<path d="M182.0567 180.4712
L182.0567 179.8998
" />
<path d="M182.0567 179.8998
L182.1281 179.7570
" />
<path d="M182.1281 179.7570
L182.2710 179.6855
" />
<path d="M182.2710 179.6855
L182.5567 179.6855
" />
<path d="M182.5567 179.6855
L182.6996 179.7570
" />
<path d="M182.6996 179.7570
L182.7710 179.8998
" />
<path d="M182.7710 179.8998
L182.7710 180.0427
" />
<path d="M182.7710 180.0427
L182.0567 180.1855
" />
<path d="M184.0567 180.6855
L184.0567 179.1855
" />
<path d="M184.0567 180.6141
L183.9139 180.6855
" />
<path d="M183.9139 180.6855
L183.6281 180.6855
" />
<path d="M183.6281 180.6855
L183.4853 180.6141
" />
<path d="M183.4853 180.6141
L183.4139 180.5427
" />
<path d="M183.4139 180.5427
L183.3424 180.3998
" />
<path d="M183.3424 180.3998
L183.3424 179.9712
" />
<path d="M183.3424 179.9712
L183.4139 179.8284
" />
<path d="M183.4139 179.8284
L183.4853 179.7570
" />
<path d="M183.4853 179.7570
L183.6281 179.6855
" />
<path d="M183.6281 179.6855
L183.9139 179.6855
" />
<path d="M183.9139 179.6855
L184.0567 179.7570
" />
<path d="M185.4139 180.6141
L185.2710 180.6855
" />
<path d="M185.2710 180.6855
L184.9853 180.6855
" />
<path d="M184.9853 180.6855
L184.8424 180.6141
" />
<path d="M184.8424 180.6141
L184.7710 180.5427
" />
<path d="M184.7710 180.5427
L184.6996 180.3998
" />
<path d="M184.6996 180.3998
L184.6996 179.9712
" />
<path d="M184.6996 179.9712
L184.7710 179.8284
" />
<path d="M184.7710 179.8284
L184.8424 179.7570
" />
<path d="M184.8424 179.7570
L184.9853 179.6855
" />
<path d="M184.9853 179.6855
L185.2710 179.6855
" />
<path d="M185.2710 179.6855
L185.4139 179.7570
" />
<path d="M186.0567 180.6855
L186.0567 179.1855
" />
<path d="M186.6996 180.6855
L186.6996 179.8998
" />
<path d="M186.6996 179.8998
L186.6281 179.7570
" />
<path d="M186.6281 179.7570
L186.4853 179.6855
" />
<path d="M186.4853 179.6855
L186.2710 179.6855
" />
<path d="M186.2710 179.6855
L186.1281 179.7570
" />
<path d="M186.1281 179.7570
L186.0567 179.8284
" />
<path d="M187.6281 180.6855
L187.4853 180.6141
" />
<path d="M187.4853 180.6141
L187.4139 180.5427
" />
<path d="M187.4139 180.5427
L187.3424 180.3998
" />
<path d="M187.3424 180.3998
L187.3424 179.9712
" />
<path d="M187.3424 179.9712
L187.4139 179.8284
" />
<path d="M187.4139 179.8284
L187.4853 179.7570
" />
<path d="M187.4853 179.7570
L187.6281 179.6855
" />
<path d="M187.6281 179.6855
L187.8424 179.6855
" />
<path d="M187.8424 179.6855
L187.9853 179.7570
" />
<path d="M187.9853 179.7570
L188.0567 179.8284
" />
<path d="M188.0567 179.8284
L188.1281 179.9712
" />
<path d="M188.1281 179.9712
L188.1281 180.3998
" />
<path d="M188.1281 180.3998
L188.0567 180.5427
" />
<path d="M188.0567 180.5427
L187.9853 180.6141
" />
<path d="M187.9853 180.6141
L187.8424 180.6855
" />
<path d="M187.8424 180.6855
L187.6281 180.6855
" />
</g></g>
<g style="fill:none; 
stroke:#000000; stroke-width:0.1500; stroke-opacity:1; 
stroke-linecap:round; stroke-linejoin:round;">
<text x="178.0022" y="177.7572"
textLength="0.4500" font-size="2.0000" lengthAdjust="spacingAndGlyphs"
text-anchor="start" opacity="0" stroke-opacity="0"></text>
<g class="stroked-text"><desc></desc>
</g></g>
<g style="fill:none; 
stroke:#000000; stroke-width:0.1500; stroke-opacity:1; 
stroke-linecap:round; stroke-linejoin:round;">
<text x="178.0022" y="174.7572"
textLength="0.4500" font-size="2.0000" lengthAdjust="spacingAndGlyphs"
text-anchor="start" opacity="0" stroke-opacity="0"></text>
<g class="stroked-text"><desc></desc>
</g></g>
<g style="fill:none; 
stroke:#000000; stroke-width:0.1500; stroke-opacity:1; 
stroke-linecap:round; stroke-linejoin:round;">
<text x="178.0022" y="171.7572"
textLength="0.4500" font-size="2.0000" lengthAdjust="spacingAndGlyphs"
text-anchor="start" opacity="0" stroke-opacity="0"></text>
<g class="stroked-text"><desc></desc>
</g></g>
<g style="fill:none; 
stroke:#000000; stroke-width:0.1500; stroke-opacity:1; 
stroke-linecap:round; stroke-linejoin:round;">
<text x="178.0022" y="168.7572"
textLength="0.4500" font-size="2.0000" lengthAdjust="spacingAndGlyphs"
text-anchor="start" opacity="0" stroke-opacity="0"></text>
<g class="stroked-text"><desc></desc>
</g></g>
<g style="fill:none; 
stroke:#000000; stroke-width:0.1500; stroke-opacity:1; 
stroke-linecap:round; stroke-linejoin:round;">
<path d="M197.0022 191.5072
L197.0022 194.5072
" />
</g>
<g style="fill:none; 
stroke:#000000; stroke-width:0.1500; stroke-opacity:1; 
stroke-linecap:round; stroke-linejoin:round;">
<path d="M261.0022 191.5072
L261.0022 198.0072
" />
</g>
<g style="fill:none; 
stroke:#D0D2CD; stroke-width:0.1500; stroke-opacity:1; 
stroke-linecap:round; stroke-linejoin:round;">
<path d="M187.6200 53.8050
L167.3304 53.8150
" />
<path d="M166.8504 53.4550 A0.5000 0.5000 0.0 0 0 166.3605 53.0550" />
<path d="M166.8504 53.4550 A0.5000 0.5000 0.0 0 0 167.3304 53.8150" />
<path d="M166.3605 53.0550
L149.2932 53.0690
" />
<path d="M94.5154 62.0208 A0.5000 0.5000 0.0 0 0 95.0154 61.5208" />
<path d="M95.5171 50.0068 A0.5000 0.5000 0.0 0 0 95.0171 50.5068" />
<path d="M130.3100 44.0362
L113.5300 44.0496
" />
<path d="M130.8100 50.0534
L130.8100 44.5362
" />
<path d="M148.2932 50.5690
L131.3100 50.5534
" />
<path d="M148.7932 52.5690
L148.7932 51.0690
" />
<path d="M95.0171 50.5068
L95.0154 61.5208
" />
<path d="M112.5471 50.0068
L95.5171 50.0068
" />
<path d="M113.0300 44.5496
L113.0471 49.5068
" />
<path d="M112.5471 50.0068 A0.5000 0.5000 0.0 0 0 113.0471 49.5068" />
<path d="M113.5300 44.0496 A0.5000 0.5000 0.0 0 0 113.0300 44.5496" />
<path d="M130.8100 44.5362 A0.5000 0.5000 0.0 0 0 130.3100 44.0362" />
<path d="M130.8100 50.0534 A0.5000 0.5000 0.0 0 0 131.3100 50.5534" />
<path d="M148.7932 51.0690 A0.5000 0.5000 0.0 0 0 148.2932 50.5690" />
<path d="M148.7932 52.5690 A0.5000 0.5000 0.0 0 0 149.2932 53.0690" />
<path d="M188.1200 54.3050 A0.5000 0.5000 0.0 0 0 187.6200 53.8050" />
<path d="M113.5000 95.5000
L125.5000 95.5000
" />
<path d="M187.5220 134.7800 A0.5000 0.5000 0.0 0 0 188.1982 134.5732" />
<path d="M77.5000 62.0000 A0.5000 0.5000 0.0 0 0 77.0000 62.5000" />
<path d="M188.1982 134.5732
L196.1500 120.7305
" />
<path d="M95.0880 112.0197
L95.0707 101.4988
" />
<path d="M135.5000 121.2025
L154.7776 121.2055
" />
<path d="M188.1773 115.7346
L195.9551 120.0508
" />
<path d="M188.1200 54.3050
L188.1773 115.7346
" />
<path d="M125.5000 95.5000
L135.0000 105.5000
" />
<path d="M77.5000 112.5000
L94.5880 112.5197
" />
<path d="M77.0000 112.0000 A0.5000 0.5000 0.0 0 0 77.5000 112.5000" />
<path d="M94.5880 112.5197 A0.5000 0.5000 0.0 0 0 95.0880 112.0197" />
<path d="M154.7776 121.2055
L171.9696 125.8134
" />
<path d="M135.0000 120.7025 A0.5000 0.5000 0.0 0 0 135.5000 121.2025" />
<path d="M112.5014 101.0054 A0.5000 0.5000 0.0 0 0 113.0014 100.5054" />
<path d="M171.9696 125.8134
L187.5219 134.7800
" />
<path d="M135.0000 105.5000
L135.0000 120.7025
" />
<path d="M113.0000 100.5000
L113.0000 96.0000
" />
<path d="M95.5707 100.9988 A0.5000 0.5000 0.0 0 0 95.0707 101.4988" />
<path d="M113.5000 95.4986 A0.5014 0.5014 0.0 0 0 113.0000 96.0000" />
<path d="M77.0000 62.5000
L77.0000 112.0000
" />
<path d="M94.5154 62.0208
L77.5000 62.0000
" />
<path d="M196.1500 120.7305 A0.5000 0.5000 0.0 0 0 195.9551 120.0508" />
<path d="M95.5707 100.9988
L112.5000 101.0000
" />
</g>
<g style="fill:none; 
stroke:#D0D2CD; stroke-width:0.1500; stroke-opacity:1; 
stroke-linecap:round; stroke-linejoin:round;">
<path d="M187.6200 53.8050
L167.3304 53.8150
" />
<path d="M166.8504 53.4550 A0.5000 0.5000 0.0 0 0 166.3605 53.0550" />
<path d="M166.8504 53.4550 A0.5000 0.5000 0.0 0 0 167.3304 53.8150" />
<path d="M166.3605 53.0550
L149.2932 53.0690
" />
<path d="M94.5154 62.0208 A0.5000 0.5000 0.0 0 0 95.0154 61.5208" />
<path d="M95.5171 50.0068 A0.5000 0.5000 0.0 0 0 95.0171 50.5068" />
<path d="M130.3100 44.0362
L113.5300 44.0496
" />
<path d="M130.8100 50.0534
L130.8100 44.5362
" />
<path d="M148.2932 50.5690
L131.3100 50.5534
" />
<path d="M148.7932 52.5690
L148.7932 51.0690
" />
<path d="M95.0171 50.5068
L95.0154 61.5208
" />
<path d="M112.5471 50.0068
L95.5171 50.0068
" />
<path d="M113.0300 44.5496
L113.0471 49.5068
" />
<path d="M112.5471 50.0068 A0.5000 0.5000 0.0 0 0 113.0471 49.5068" />
<path d="M113.5300 44.0496 A0.5000 0.5000 0.0 0 0 113.0300 44.5496" />
<path d="M130.8100 44.5362 A0.5000 0.5000 0.0 0 0 130.3100 44.0362" />
<path d="M130.8100 50.0534 A0.5000 0.5000 0.0 0 0 131.3100 50.5534" />
<path d="M148.7932 51.0690 A0.5000 0.5000 0.0 0 0 148.2932 50.5690" />
<path d="M148.7932 52.5690 A0.5000 0.5000 0.0 0 0 149.2932 53.0690" />
<path d="M188.1200 54.3050 A0.5000 0.5000 0.0 0 0 187.6200 53.8050" />
<path d="M113.5000 95.5000
L125.5000 95.5000
" />
<path d="M187.5220 134.7800 A0.5000 0.5000 0.0 0 0 188.1982 134.5732" />
<path d="M77.5000 62.0000 A0.5000 0.5000 0.0 0 0 77.0000 62.5000" />
<path d="M188.1982 134.5732
L196.1500 120.7305
" />
<path d="M95.0880 112.0197
L95.0707 101.4988
" />
<path d="M135.5000 121.2025
L154.7776 121.2055
" />
<path d="M188.1773 115.7346
L195.9551 120.0508
" />
<path d="M188.1200 54.3050
L188.1773 115.7346
" />
<path d="M125.5000 95.5000
L135.0000 105.5000
" />
<path d="M77.5000 112.5000
L94.5880 112.5197
" />
<path d="M77.0000 112.0000 A0.5000 0.5000 0.0 0 0 77.5000 112.5000" />
<path d="M94.5880 112.5197 A0.5000 0.5000 0.0 0 0 95.0880 112.0197" />
<path d="M154.7776 121.2055
L171.9696 125.8134
" />
<path d="M135.0000 120.7025 A0.5000 0.5000 0.0 0 0 135.5000 121.2025" />
<path d="M112.5014 101.0054 A0.5000 0.5000 0.0 0 0 113.0014 100.5054" />
<path d="M171.9696 125.8134
L187.5219 134.7800
" />
<path d="M135.0000 105.5000
L135.0000 120.7025
" />
<path d="M113.0000 100.5000
L113.0000 96.0000
" />
<path d="M95.5707 100.9988 A0.5000 0.5000 0.0 0 0 95.0707 101.4988" />
<path d="M113.5000 95.4986 A0.5014 0.5014 0.0 0 0 113.0000 96.0000" />
<path d="M77.0000 62.5000
L77.0000 112.0000
" />
<path d="M94.5154 62.0208
L77.5000 62.0000
" />
<path d="M196.1500 120.7305 A0.5000 0.5000 0.0 0 0 195.9551 120.0508" />
<path d="M95.5707 100.9988
L112.5000 101.0000
" />
</g> 
</svg>
